<svg width="128" height="65" viewBox="0 0 128 65" fill="none" xmlns="http://www.w3.org/2000/svg">
<g clip-path="url(#clip0_202_2)">
<path d="M48.243 21.9104H45.029V1.49189H52.5864C54.5168 1.49189 55.9839 2.03795 56.9877 3.13005C58.0108 4.22216 58.5224 5.7238 58.5224 7.63499C58.5224 9.19514 58.1459 10.4823 57.3931 11.4964C56.6402 12.5105 55.5592 13.1345 54.15 13.3685L58.8119 21.9104H55.2214L50.9359 13.6611H48.243V21.9104ZM52.1231 11.0283C54.1307 11.0283 55.1345 10.102 55.1345 8.2493V6.99143C55.1345 5.13875 54.1307 4.21241 52.1231 4.21241H48.243V11.0283H52.1231Z" fill="#4263EB"/>
<path d="M74.2051 21.9104C73.2978 21.9104 72.6125 21.6763 72.1492 21.2083C71.7052 20.7403 71.435 20.126 71.3385 19.3654H71.1937C70.9041 20.282 70.3733 20.9938 69.6011 21.5008C68.8483 22.0079 67.8831 22.2614 66.7055 22.2614C65.1805 22.2614 63.9644 21.8616 63.0571 21.062C62.1498 20.243 61.6962 19.1216 61.6962 17.698C61.6962 16.2353 62.227 15.1237 63.2888 14.3631C64.3698 13.5831 66.0203 13.193 68.2402 13.193H71.1068V12.0229C71.1068 9.97521 70.0355 8.95137 67.8927 8.95137C66.9275 8.95137 66.1457 9.14639 65.5473 9.53642C64.9489 9.90696 64.447 10.4043 64.0416 11.0283L62.1595 9.47792C62.5842 8.65884 63.2984 7.95677 64.3022 7.37171C65.306 6.76716 66.5994 6.46488 68.1823 6.46488C70.0741 6.46488 71.5605 6.92317 72.6415 7.83976C73.7225 8.75635 74.263 10.0825 74.263 11.8181V19.3946H76.1451V21.9104H74.2051ZM67.6032 19.9212C68.6263 19.9212 69.466 19.6872 70.1223 19.2191C70.7787 18.7511 71.1068 18.1465 71.1068 17.4054V15.2115H68.2981C66.0203 15.2115 64.8813 15.9038 64.8813 17.2884V17.8735C64.8813 18.556 65.1226 19.0728 65.6052 19.4239C66.0878 19.7554 66.7538 19.9212 67.6032 19.9212Z" fill="#4263EB"/>
<path d="M86.0367 22.2614C84.4152 22.2614 83.0156 21.9981 81.8381 21.4716C80.6799 20.945 79.7436 20.243 79.0294 19.3654L80.9694 17.6102C81.6258 18.3318 82.3593 18.8876 83.1701 19.2776C84.0001 19.6482 84.975 19.8334 86.0946 19.8334C87.1177 19.8334 87.9381 19.6579 88.5559 19.3069C89.1929 18.9558 89.5114 18.4098 89.5114 17.6687C89.5114 17.3567 89.4535 17.0934 89.3377 16.8789C89.2218 16.6644 89.0578 16.4888 88.8454 16.3523C88.6331 16.2158 88.3821 16.1086 88.0926 16.0306C87.8223 15.9525 87.5328 15.894 87.2239 15.855L84.8495 15.4747C84.2704 15.3967 83.6816 15.27 83.0832 15.0945C82.4848 14.9189 81.9443 14.6752 81.4617 14.3631C80.9984 14.0316 80.6123 13.6123 80.3035 13.1053C80.0139 12.5982 79.8691 11.9547 79.8691 11.1746C79.8691 9.63393 80.4482 8.46382 81.6065 7.66424C82.784 6.86466 84.3283 6.46488 86.2394 6.46488C87.6293 6.46488 88.8261 6.6794 89.8299 7.10844C90.853 7.51798 91.7024 8.09328 92.378 8.83436L90.6117 10.7065C90.2256 10.258 89.6755 9.84845 88.9612 9.47792C88.247 9.08788 87.3011 8.89286 86.1236 8.89286C84.0195 8.89286 82.9674 9.56568 82.9674 10.9113C82.9674 11.5549 83.1894 12.0034 83.6334 12.2569C84.0967 12.491 84.6372 12.647 85.2549 12.725L87.6293 13.1053C88.2277 13.2028 88.8165 13.3295 89.3956 13.4856C89.994 13.6416 90.5249 13.8853 90.9881 14.2169C91.4707 14.5289 91.8568 14.9384 92.1464 15.4455C92.4552 15.9525 92.6097 16.5961 92.6097 17.3762C92.6097 18.8973 92.0209 20.0967 90.8434 20.9743C89.6851 21.8324 88.0829 22.2614 86.0367 22.2614Z" fill="#4263EB"/>
<path d="M96.9707 6.81591H100.127V9.39016H100.301C100.745 8.47357 101.333 7.76175 102.067 7.2547C102.8 6.72815 103.717 6.46488 104.818 6.46488C106.574 6.46488 107.974 7.12794 109.016 8.45407C110.059 9.7802 110.58 11.7499 110.58 14.3631C110.58 16.9764 110.059 18.9461 109.016 20.2722C107.974 21.5983 106.574 22.2614 104.818 22.2614C103.717 22.2614 102.8 22.0079 102.067 21.5008C101.333 20.9743 100.745 20.2527 100.301 19.3361H100.127V27.7609H96.9707V6.81591ZM103.515 19.6579C104.712 19.6579 105.628 19.2874 106.265 18.5463C106.922 17.8052 107.25 16.8204 107.25 15.5918V13.1345C107.25 11.9059 106.922 10.9211 106.265 10.18C105.628 9.43891 104.712 9.06838 103.515 9.06838C103.051 9.06838 102.617 9.12688 102.212 9.2439C101.806 9.36091 101.449 9.53642 101.14 9.77044C100.831 10.0045 100.581 10.297 100.387 10.648C100.214 10.9796 100.127 11.3794 100.127 11.8474V16.8789C100.127 17.3469 100.214 17.7565 100.387 18.1075C100.581 18.439 100.831 18.7218 101.14 18.9558C101.449 19.1899 101.806 19.3654 102.212 19.4824C102.617 19.5994 103.051 19.6579 103.515 19.6579Z" fill="#4263EB"/>
<path d="M121.659 4.06614C120.848 4.06614 120.278 3.90038 119.95 3.56885C119.641 3.23731 119.487 2.82777 119.487 2.34023V1.72592C119.487 1.23837 119.641 0.82883 119.95 0.497297C120.278 0.165766 120.838 0 121.63 0C122.44 0 123 0.165766 123.309 0.497297C123.637 0.82883 123.801 1.23837 123.801 1.72592V2.34023C123.801 2.82777 123.637 3.23731 123.309 3.56885C123 3.90038 122.45 4.06614 121.659 4.06614ZM114.97 19.3361H120.066V9.39016H114.97V6.81591H123.222V19.3361H128V21.9104H114.97V19.3361Z" fill="#4263EB"/>
<path d="M45 39.5815H51.9783C53.8122 39.5815 55.2311 40.0593 56.2349 41.0149C57.258 41.9705 57.7695 43.2771 57.7695 44.9348C57.7695 46.1244 57.48 47.0702 56.9008 47.7723C56.3217 48.4744 55.5399 48.9717 54.5554 49.2642V49.4105C55.733 49.6835 56.6788 50.2101 57.3931 50.9901C58.1073 51.7507 58.4644 52.8331 58.4644 54.2372C58.4644 55.0758 58.3293 55.8461 58.0591 56.5482C57.7888 57.2502 57.4027 57.8645 56.9008 58.3911C56.3989 58.8981 55.7909 59.2979 55.0766 59.5905C54.3817 59.8635 53.6095 60 52.7602 60H45V39.5815ZM51.7757 57.4843C52.8567 57.4843 53.6867 57.26 54.2659 56.8114C54.845 56.3629 55.1345 55.6413 55.1345 54.6467V53.5936C55.1345 52.599 54.845 51.8775 54.2659 51.4289C53.6867 50.9804 52.8567 50.7561 51.7757 50.7561H48.1851V57.4843H51.7757ZM51.3124 48.3574C52.3355 48.3574 53.1076 48.1624 53.6288 47.7723C54.1693 47.3628 54.4396 46.69 54.4396 45.7539V44.7008C54.4396 43.7647 54.1693 43.1016 53.6288 42.7116C53.1076 42.302 52.3355 42.0973 51.3124 42.0973H48.1851V48.3574H51.3124Z" fill="#4263EB"/>
<path d="M62.1305 57.4258H67.082V40.9272H62.1305V38.3529H70.2381V57.4258H75.1896V60H62.1305V57.4258Z" fill="#4263EB"/>
<path d="M86.9343 42.1558C86.1236 42.1558 85.5541 41.99 85.2259 41.6585C84.9171 41.3269 84.7626 40.9174 84.7626 40.4299V39.8155C84.7626 39.328 84.9171 38.9185 85.2259 38.5869C85.5541 38.2554 86.1139 38.0896 86.9054 38.0896C87.7161 38.0896 88.276 38.2554 88.5848 38.5869C88.913 38.9185 89.0771 39.328 89.0771 39.8155V40.4299C89.0771 40.9174 88.913 41.3269 88.5848 41.6585C88.276 41.99 87.7258 42.1558 86.9343 42.1558ZM80.2455 57.4258H85.3418V47.4798H80.2455V44.9055H88.4979V57.4258H93.2757V60H80.2455V57.4258Z" fill="#4263EB"/>
<path d="M104.268 60C102.955 60 101.99 59.649 101.372 58.9469C100.754 58.2253 100.445 57.299 100.445 56.1679V47.4798H95.8414V44.9055H99.1134C99.6732 44.9055 100.069 44.7983 100.301 44.5838C100.532 44.3497 100.648 43.9402 100.648 43.3551V39.5815H103.602V44.9055H109.972V47.4798H103.602V57.4258H109.972V60H104.268Z" fill="#4263EB"/>
<path d="M114.275 60V57.1917L123.367 47.4798H114.593V44.9055H126.9V47.7138L117.808 57.4258H127.189V60H114.275Z" fill="#4263EB"/>
<g clip-path="url(#clip1_202_2)">
<path fill-rule="evenodd" clip-rule="evenodd" d="M29.9668 2.00903L16.925 28.5642H29.9668L0.00383759 64.9714L12.0156 35.9028H0.00383759L14.1909 2.00903H29.9668Z" fill="#4263EB"/>
</g>
</g>
<defs>
<clipPath id="clip0_202_2">
<rect width="128" height="65" fill="#4263EB"/>
</clipPath>
<clipPath id="clip1_202_2">
<rect width="30" height="63" fill="#4263EB" transform="translate(0 2)"/>
</clipPath>
</defs>
</svg>
