<svg width="190" height="190" viewBox="0 0 190 190" fill="none" xmlns="http://www.w3.org/2000/svg">
<rect width="190" height="190" fill="none"/>
<g clip-path="url(#clip0_218_240)">
<path d="M63.0018 188C60.0917 187.984 57.3061 186.821 55.2539 184.765C53.2017 182.709 52.0497 179.926 52.0498 177.026V11.9737C52.0055 10.5055 52.2574 9.0434 52.7906 7.67401C53.3238 6.30463 54.1274 5.05586 55.1539 4.00172C56.1803 2.94758 57.4087 2.10952 58.7662 1.53723C60.1237 0.964933 61.5826 0.670044 63.0566 0.670044C64.5305 0.670044 65.9895 0.964933 67.3469 1.53723C68.7044 2.10952 69.9328 2.94758 70.9592 4.00172C71.9857 5.05586 72.7893 6.30463 73.3225 7.67401C73.8558 9.0434 74.1077 10.5055 74.0634 11.9737V177.026C74.0634 178.472 73.7769 179.903 73.2204 181.237C72.6639 182.572 71.8483 183.784 70.8205 184.803C69.7927 185.823 68.5729 186.63 67.2311 187.179C65.8894 187.728 64.4521 188.007 63.0018 188V188Z" fill="currentColor"/>
<path d="M63.0118 188C60.5304 187.978 58.1293 187.121 56.1977 185.569C54.2661 184.017 52.9172 181.86 52.3697 179.448C51.8223 177.036 52.1083 174.51 53.1816 172.281C54.2548 170.051 56.0522 168.248 58.2825 167.164L124.652 135.771L56.4804 85.6843C54.1302 83.9594 52.564 81.3747 52.1261 78.499C51.6883 75.6232 52.4147 72.6919 54.1456 70.3498C55.8765 68.0078 58.4701 66.447 61.3558 66.0106C64.2416 65.5743 67.1831 66.2982 69.5332 68.0231L152.52 128.954C154.064 130.07 155.29 131.57 156.074 133.303C156.859 135.037 157.175 136.944 156.992 138.837C156.809 140.73 156.133 142.542 155.03 144.095C153.928 145.647 152.438 146.885 150.708 147.687L67.741 186.938C66.2647 187.642 64.6482 188.005 63.0118 188V188Z" fill="currentColor"/>
<path d="M63.0118 123.12C60.6802 123.137 58.4035 122.415 56.5103 121.058C54.6171 119.702 53.2053 117.781 52.4786 115.573C51.7519 113.366 51.7479 110.985 52.4672 108.774C53.1864 106.564 54.5918 104.639 56.4804 103.276L124.652 53.2194L58.2825 21.8758C55.6419 20.6285 53.6067 18.3869 52.6245 15.6442C51.6424 12.9015 51.7938 9.88228 53.0454 7.2508C54.2971 4.61932 56.5464 2.59112 59.2986 1.61237C62.0509 0.633624 65.0805 0.784505 67.7211 2.03183L150.708 41.2833C152.429 42.095 153.909 43.3381 155.004 44.8909C156.099 46.4437 156.77 48.253 156.953 50.142C157.135 52.0309 156.823 53.9348 156.046 55.6673C155.269 57.3998 154.054 58.9016 152.52 60.0259L69.5332 120.987C67.6449 122.376 65.3588 123.124 63.0118 123.12V123.12Z" fill="currentColor"/>
<path d="M74.0136 71.3074V117.693L105.585 94.5149L74.0136 71.3074Z" fill="currentColor"/>
<path d="M74.0136 51.8602H52V105.33H74.0136V51.8602Z" fill="white"/>
<path d="M74.0136 11.9737C74.0579 10.5055 73.806 9.0434 73.2728 7.67401C72.7396 6.30463 71.9359 5.05586 70.9095 4.00172C69.883 2.94758 68.6546 2.10952 67.2972 1.53723C65.9397 0.964933 64.4807 0.670044 63.0068 0.670044C61.5328 0.670044 60.0739 0.964933 58.7164 1.53723C57.3589 2.10952 56.1306 2.94758 55.1041 4.00172C54.0777 5.05586 53.274 6.30463 52.7408 7.67401C52.2076 9.0434 51.9557 10.5055 52 11.9737V149.979H74.0136V11.9737Z" fill="currentColor"/>
</g>
<defs>
<clipPath id="clip0_218_240">
<rect width="105" height="187" fill="white" transform="translate(52 1)"/>
</clipPath>
</defs>
</svg>
