<svg width="190" height="190" viewBox="0 0 190 190" fill="none" xmlns="http://www.w3.org/2000/svg">
<rect width="190" height="190" fill="none"/>
<path fill-rule="evenodd" clip-rule="evenodd" d="M185 95L184.998 95.45L184.994 95.9L184.986 96.35L184.976 96.8L184.962 97.249L184.945 97.699L184.925 98.149L184.902 98.598L184.877 99.047L184.848 99.496L184.816 99.945L184.781 100.393L184.743 100.841L184.701 101.289L184.657 101.737L184.61 102.184L184.56 102.631L184.507 103.077L184.451 103.523L184.391 103.969L184.329 104.414L184.264 104.859L184.196 105.303L184.125 105.747L184.05 106.19L183.973 106.632L183.893 107.074L183.81 107.515L183.724 107.956L183.635 108.396L183.543 108.835L183.448 109.274L183.35 109.711L183.249 110.149L183.145 110.585L183.038 111.02L182.929 111.455L182.816 111.889L182.701 112.322L182.582 112.754L182.461 113.185L182.337 113.615L182.21 114.045L182.08 114.473L181.948 114.9L181.812 115.327L181.674 115.752L181.533 116.176L181.389 116.599L181.242 117.021L181.093 117.442L180.94 117.862L180.785 118.281L180.627 118.698L180.467 119.114L180.303 119.529L180.137 119.943L179.969 120.356L179.797 120.767L179.623 121.177L179.446 121.586L179.266 121.993L179.084 122.399L178.899 122.803L178.712 123.207L178.522 123.608L178.329 124.009L178.134 124.408L177.936 124.805L177.736 125.201L177.533 125.595L177.327 125.988L177.119 126.38L176.908 126.769L176.695 127.158L176.48 127.544L176.262 127.929L176.041 128.312L175.818 128.694L175.593 129.074L175.365 129.453L175.135 129.829L174.902 130.204L174.668 130.577L174.43 130.949L174.191 131.319L173.949 131.687L173.705 132.053L173.458 132.417L173.209 132.779L172.958 133.14L172.705 133.499L172.449 133.856L172.192 134.211L171.932 134.564L171.67 134.915L171.406 135.265L171.139 135.612L170.871 135.957L170.6 136.301L170.328 136.642L170.053 136.982L169.776 137.319L169.497 137.654L169.216 137.988L168.934 138.319L168.649 138.648L168.362 138.975L168.073 139.301L167.783 139.624L167.49 139.944L167.196 140.263L166.899 140.58L166.601 140.894L166.301 141.207L165.999 141.517L165.696 141.825L165.39 142.13L165.083 142.434L164.774 142.735L164.464 143.035L164.152 143.331L163.838 143.626L163.522 143.919L163.205 144.209L162.886 144.497L162.565 144.782L162.243 145.066L161.92 145.347L161.595 145.626L161.268 145.902L160.94 146.176L160.61 146.448L160.279 146.718L159.946 146.985L159.612 147.25L159.277 147.512L158.94 147.772L158.602 148.03L158.262 148.285L157.921 148.538L157.579 148.789L157.236 149.037L156.891 149.283L156.545 149.526L156.198 149.767L155.85 150.006L155.5 150.242L155.149 150.476L154.798 150.707L154.445 150.936L154.091 151.163L153.735 151.387L153.379 151.609L153.022 151.828L152.664 152.045L152.304 152.259L151.944 152.471L151.583 152.68L151.221 152.887L150.858 153.092L150.494 153.294L150.129 153.493L149.763 153.69L149.396 153.885L149.029 154.077L148.661 154.267L148.292 154.454L147.922 154.639L147.552 154.821L147.18 155.001L146.808 155.179L146.436 155.353L146.063 155.526L145.689 155.696L145.314 155.863L144.939 156.029L144.563 156.191L144.187 156.351L143.81 156.509L143.433 156.664L143.055 156.817L142.677 156.967L142.298 157.115L141.919 157.26L141.539 157.403L141.159 157.544L140.779 157.682L140.398 157.818L140.017 157.951L139.635 158.081L139.253 158.21L138.871 158.336L138.489 158.459L138.106 158.58L137.723 158.699L137.34 158.815L136.957 158.929L136.573 159.04L136.19 159.149L135.806 159.256L135.422 159.36L135.038 159.462L134.653 159.561L134.269 159.658L133.885 159.753L133.501 159.845L133.116 159.935L132.732 160.023L132.347 160.108L131.963 160.191L131.579 160.272L131.194 160.35L130.81 160.427L130.426 160.5L130.042 160.572L129.658 160.641L129.275 160.708L128.891 160.772L128.508 160.835L128.124 160.895L127.741 160.952L127.359 161.008L126.976 161.061L126.594 161.112L126.212 161.161L125.83 161.208L125.448 161.252L125.067 161.294L124.686 161.335L124.306 161.372L123.926 161.408L123.546 161.442L123.167 161.473L122.788 161.502L122.409 161.53L122.031 161.555L121.653 161.578L121.276 161.598L120.899 161.617L120.523 161.634L120.147 161.648L119.772 161.661L119.397 161.671L119.023 161.68L118.649 161.686L118.276 161.691L117.903 161.693L117.531 161.694L117.16 161.692L116.789 161.688L116.419 161.683L116.049 161.675L115.68 161.666L115.312 161.655L114.944 161.642L114.577 161.626L114.211 161.609L113.846 161.591L113.481 161.57L113.117 161.547L112.753 161.523L112.39 161.496L112.028 161.468L111.667 161.438L111.307 161.407L110.947 161.373L110.588 161.338L110.23 161.301L109.873 161.262L109.516 161.221L109.161 161.179L108.806 161.135L108.452 161.09L108.099 161.042L107.746 160.993L107.395 160.943L107.044 160.89L106.694 160.836L106.346 160.781L105.998 160.723L105.651 160.665L105.304 160.604L104.959 160.542L104.615 160.479L104.271 160.414L103.929 160.347L103.587 160.279L103.247 160.209L102.907 160.138L102.568 160.066L102.23 159.992L101.894 159.916L101.558 159.839L101.223 159.761L100.889 159.681L100.556 159.6L100.224 159.517L99.893 159.433L99.563 159.348L99.234 159.261L98.906 159.173L98.579 159.084L98.253 158.993L97.928 158.901L97.605 158.808L97.282 158.713L96.96 158.617L96.639 158.52L96.319 158.422L96 158.323L95.683 158.222L95.366 158.12L95.05 158.017L94.736 157.912L94.422 157.807L94.109 157.7L93.798 157.592L93.487 157.484L93.178 157.374L92.87 157.262L92.562 157.15L92.256 157.037L91.951 156.923L91.647 156.807L91.343 156.691L91.041 156.573L90.74 156.455L90.44 156.335L90.141 156.215L89.844 156.093L89.547 155.971L89.251 155.847L88.956 155.723L88.663 155.598L88.37 155.471L88.078 155.344L87.788 155.216L87.498 155.087L87.21 154.957L86.923 154.827L86.636 154.695L86.351 154.563L86.067 154.429L85.783 154.295L85.501 154.16L85.22 154.025L84.94 153.888L84.661 153.751L84.383 153.613L84.105 153.474L83.829 153.334L83.554 153.194L83.28 153.053L83.007 152.911L82.735 152.768L82.464 152.625L82.194 152.481L81.925 152.337L81.657 152.191L81.39 152.045L81.124 151.899L80.859 151.751L80.595 151.603L80.332 151.455L80.07 151.306L79.808 151.156L79.548 151.005L79.289 150.854L79.031 150.703L78.773 150.55L78.517 150.398L78.261 150.244L78.007 150.09L77.753 149.936L77.5 149.781L77.249 149.625L76.998 149.469L76.748 149.313L76.499 149.155L76.25 148.998L76.003 148.84L75.757 148.681L75.511 148.522L75.267 148.362L75.023 148.202L74.78 148.041L74.538 147.88L74.297 147.719L74.057 147.557L73.817 147.395L73.579 147.232L73.341 147.068L73.104 146.905L72.868 146.741L72.632 146.576L72.398 146.411L72.164 146.246L71.931 146.08L71.699 145.914L71.468 145.747L71.237 145.58L71.007 145.413L70.778 145.245L70.55 145.077L70.323 144.908L70.096 144.739L69.87 144.57L69.645 144.4L69.42 144.23L69.196 144.06L68.973 143.889L68.751 143.718L68.529 143.547L68.308 143.375L68.088 143.203L67.868 143.031L67.649 142.858L67.431 142.685L67.213 142.511L66.996 142.337L66.78 142.163L66.564 141.989L66.349 141.814L66.135 141.639L65.921 141.463L65.708 141.288L65.496 141.112L65.284 140.935L65.073 140.758L64.862 140.581L64.652 140.404L64.442 140.226L64.234 140.048L64.025 139.87L63.817 139.691L63.61 139.512L63.404 139.333L63.198 139.153L62.992 138.973L62.787 138.793L62.583 138.613L62.379 138.432L62.175 138.25L61.972 138.069L61.77 137.887L61.568 137.705L61.367 137.522L61.166 137.339L60.965 137.156L60.766 136.973L60.566 136.789L60.367 136.605L60.169 136.42L59.971 136.235L59.773 136.05L59.576 135.865L59.379 135.679L59.183 135.492L58.987 135.306L58.792 135.119L58.597 134.932L58.403 134.744L58.209 134.556L58.015 134.368L57.822 134.179L57.629 133.99L57.437 133.8L57.245 133.61L57.053 133.42L56.862 133.229L56.671 133.038L56.481 132.847L56.291 132.655L56.101 132.463L55.912 132.27L55.723 132.077L55.534 131.884L55.346 131.69L55.158 131.496L54.971 131.301L54.784 131.106L54.597 130.91L54.41 130.714L54.224 130.518L54.039 130.321L53.853 130.124L53.668 129.926L53.484 129.728L53.299 129.529L53.115 129.33L52.932 129.13L52.748 128.93L52.565 128.729L52.382 128.528L52.2 128.327L52.018 128.124L51.836 127.922L51.655 127.719L51.474 127.515L51.293 127.311L51.113 127.106L50.933 126.901L50.753 126.695L50.574 126.489L50.394 126.282L50.216 126.074L50.037 125.866L49.859 125.657L49.681 125.448L49.504 125.238L49.326 125.028L49.149 124.817L48.973 124.606L48.797 124.393L48.621 124.181L48.445 123.967L48.27 123.753L48.095 123.538L47.92 123.323L47.746 123.107L47.572 122.891L47.398 122.673L47.225 122.455L47.052 122.237L46.879 122.017L46.707 121.797L46.535 121.577L46.364 121.355L46.192 121.133L46.022 120.911L45.851 120.687L45.681 120.463L45.511 120.238L45.342 120.012L45.173 119.786L45.004 119.559L44.836 119.331L44.668 119.102L44.5 118.873L44.333 118.643L44.166 118.412L44 118.18L43.834 117.947L43.668 117.714L43.503 117.48L43.338 117.245L43.174 117.009L43.01 116.773L42.846 116.535L42.683 116.297L42.521 116.058L42.359 115.818L42.197 115.577L42.036 115.336L41.875 115.093L41.714 114.85L41.555 114.606L41.395 114.361L41.236 114.115L41.078 113.868L40.92 113.62L40.763 113.371L40.606 113.122L40.449 112.871L40.294 112.62L40.138 112.368L39.984 112.115L39.829 111.861L39.676 111.605L39.523 111.35L39.37 111.093L39.218 110.835L39.067 110.576L38.916 110.316L38.766 110.055L38.617 109.794L38.468 109.531L38.319 109.267L38.172 109.003L38.025 108.737L37.879 108.471L37.733 108.203L37.588 107.934L37.444 107.665L37.3 107.394L37.157 107.123L37.015 106.85L36.874 106.577L36.733 106.302L36.593 106.027L36.454 105.75L36.315 105.472L36.178 105.194L36.041 104.914L35.905 104.633L35.769 104.352L35.635 104.069L35.501 103.785L35.368 103.5L35.236 103.214L35.105 102.928L34.975 102.64L34.846 102.351L34.717 102.061L34.59 101.769L34.463 101.477L34.337 101.184L34.212 100.89L34.088 100.595L33.965 100.298L33.843 100.001L33.722 99.703L33.602 99.403L33.483 99.103L33.366 98.801L33.249 98.498L33.133 98.195L33.018 97.89L32.904 97.584L32.791 97.277L32.68 96.969L32.569 96.661L32.46 96.351L32.351 96.04L32.244 95.728L32.138 95.414L32.033 95.1L31.929 94.785L31.827 94.469L31.726 94.152L31.625 93.833L31.527 93.514L31.429 93.194L31.332 92.872L31.237 92.55L31.143 92.226L31.051 91.902L30.96 91.576L30.87 91.25L30.781 90.923L30.693 90.594L30.607 90.265L30.523 89.934L30.44 89.603L30.358 89.27L30.277 88.937L30.198 88.602L30.121 88.267L30.044 87.931L29.97 87.593L29.896 87.255L29.824 86.916L29.754 86.576L29.685 86.234L29.618 85.892L29.552 85.549L29.488 85.205L29.425 84.861L29.364 84.515L29.305 84.168L29.247 83.821L29.19 83.472L29.136 83.123L29.082 82.773L29.031 82.422L28.981 82.07L28.933 81.717L28.887 81.363L28.842 81.009L28.799 80.654L28.757 80.298L28.718 79.941L28.68 79.583L28.644 79.224L28.609 78.865L28.577 78.505L28.546 78.144L28.517 77.783L28.49 77.42L28.465 77.057L28.441 76.693L28.419 76.329L28.4 75.963L28.382 75.598L28.366 75.231L28.351 74.864L28.339 74.496L28.329 74.127L28.321 73.758L28.314 73.388L28.31 73.017L28.307 72.646V72.274L28.308 71.902L28.312 71.529L28.317 71.156L28.324 70.782L28.334 70.407L28.346 70.032L28.359 69.657L28.375 69.28L28.393 68.904L28.412 68.527L28.434 68.149L28.458 67.771L28.485 67.393L28.513 67.014L28.543 66.635L28.576 66.255L28.61 65.876L28.647 65.495L28.686 65.115L28.727 64.734L28.771 64.352L28.816 63.971L28.864 63.589L28.914 63.207L28.967 62.824L29.021 62.441L29.078 62.059L29.137 61.675L29.198 61.292L29.261 60.9086L29.327 60.5249L29.395 60.1411L29.466 59.7572L29.538 59.3731L29.613 58.989L29.69 58.6048L29.77 58.2205L29.852 57.8361L29.936 57.4517L30.023 57.0673L30.111 56.6829L30.203 56.2985L30.296 55.9142L30.392 55.5299L30.491 55.1457L30.591 54.7616L30.694 54.3775L30.8 53.9936L30.908 53.6099L31.018 53.2263L31.131 52.8429L31.246 52.4596L31.363 52.0766L31.483 51.6938L31.605 51.3113L31.73 50.9291L31.857 50.5471L31.987 50.1654L32.119 49.7841L32.253 49.4031L32.39 49.0224L32.529 48.6422L32.671 48.2623L32.815 47.8829L32.962 47.5039L33.111 47.1253L33.263 46.7473L33.417 46.3697L33.573 45.9926L33.732 45.6161L33.894 45.2401L34.058 44.8647L34.224 44.4899L34.393 44.1158L34.564 43.7422L34.738 43.3693L34.914 42.9971L35.093 42.6255L35.274 42.2547L35.457 41.8846L35.643 41.5152L35.832 41.1467L36.023 40.7789L36.217 40.4119L36.412 40.0458L36.611 39.6805L36.812 39.316L37.015 38.9525L37.221 38.5899L37.429 38.2282L37.64 37.8675L37.853 37.5077L38.069 37.1489L38.287 36.7912L38.507 36.4345L38.73 36.0788L38.955 35.7242L39.183 35.3707L39.413 35.0183L39.646 34.667L39.881 34.3169L40.118 33.968L40.358 33.6202L40.601 33.2737L40.845 32.9284L41.092 32.5844L41.342 32.2416L41.594 31.9002L41.848 31.56L42.105 31.2212L42.364 30.8837L42.625 30.5476L42.889 30.2129L43.155 29.8797L43.423 29.5478L43.694 29.2174L43.967 28.8885L44.242 28.5611L44.52 28.2352L44.8 27.9108L45.082 27.588L45.367 27.2668L45.653 26.9471L45.943 26.6291L46.234 26.3127L46.528 25.9979L46.823 25.6848L47.122 25.3734L47.422 25.0638L47.724 24.7558L48.029 24.4496L48.336 24.1451L48.645 23.8425L48.956 23.5416L49.27 23.2426L49.585 22.9454L49.903 22.6501L50.223 22.3566L50.545 22.0651L50.869 21.7754L51.195 21.4877L51.524 21.202L51.854 20.9182L52.186 20.6364L52.521 20.3566L52.857 20.0789L53.196 19.8032L53.536 19.5295L53.879 19.2579L54.223 18.9885L54.569 18.7211L54.918 18.4559L55.268 18.1928L55.62 17.9318L55.974 17.6731L56.33 17.4165L56.688 17.1622L57.048 16.9101L57.41 16.6602L57.773 16.4126L58.138 16.1673L58.505 15.9243L58.874 15.6836L59.245 15.4452L59.617 15.2092L59.991 14.9755L60.367 14.7442L60.745 14.5153L61.124 14.2888L61.505 14.0647L61.888 13.843L62.272 13.6238L62.658 13.4071L63.045 13.1928L63.434 12.981L63.825 12.7718L64.217 12.565L64.611 12.3608L65.006 12.1591L65.402 11.96L65.801 11.7635L66.2 11.5696L66.601 11.3782L67.004 11.1895L67.408 11.0034L67.813 10.82L68.22 10.6391L68.628 10.461L69.037 10.2855L69.448 10.1127L69.86 9.9427L70.273 9.7753L70.687 9.6106L71.103 9.4487L71.52 9.2896L71.938 9.1331L72.357 8.9795L72.777 8.8286L73.199 8.6805L73.622 8.5352L74.045 8.3928L74.47 8.2531L74.896 8.1163L75.323 7.9822L75.751 7.8511L76.179 7.7228L76.609 7.5973L77.04 7.4748L77.472 7.3551L77.904 7.2382L78.338 7.1243L78.772 7.0133L79.207 6.9052L79.643 6.8L80.08 6.6978L80.517 6.5985L80.955 6.5021L81.394 6.4086L81.834 6.3181L82.274 6.2306L82.715 6.1461L83.157 6.0645L83.599 5.9859L84.042 5.9102L84.485 5.8376L84.929 5.7679L85.373 5.7013L85.818 5.6376L86.264 5.5769L86.709 5.5193L87.156 5.4647L87.602 5.4131L88.049 5.3645L88.497 5.3189L88.944 5.2764L89.393 5.2369L89.841 5.2004L90.289 5.167L90.738 5.1366L91.187 5.1092L91.637 5.0849L92.086 5.0636L92.536 5.0454L92.985 5.0302L93.435 5.0181L93.885 5.009L94.335 5.003L94.785 5L95.235 5.0001L95.685 5.0032L96.135 5.0094L96.585 5.0186L97.035 5.0308L97.484 5.0461L97.934 5.0645L98.383 5.0859L98.833 5.1104L99.282 5.1379L99.73 5.1684L100.179 5.202L100.627 5.2386L101.075 5.2782L101.523 5.3209L101.971 5.3666L102.418 5.4153L102.864 5.467L103.31 5.5218L103.756 5.5796L104.202 5.6404L104.646 5.7042L105.091 5.7709L105.535 5.8407L105.978 5.9135L106.421 5.9893L106.863 6.068L107.304 6.1498L107.745 6.2344L108.186 6.3221L108.625 6.4127L109.064 6.5063L109.502 6.6028L109.94 6.7023L110.376 6.8046L110.812 6.91L111.247 7.0182L111.682 7.1293L112.115 7.2434L112.548 7.3603L112.979 7.4801L113.41 7.6028L113.84 7.7284L114.268 7.8568L114.696 7.9881L115.123 8.1223L115.549 8.2592L115.973 8.399L116.397 8.5416L116.82 8.6871L117.241 8.8353L117.662 8.9863L118.081 9.14L118.499 9.2966L118.916 9.4559L119.331 9.6179L119.746 9.7827L120.159 9.9502L120.571 10.1204L120.981 10.2933L121.39 10.4689L121.798 10.6471L122.205 10.828L122.61 11.0116L123.014 11.1978L123.417 11.3867L123.818 11.5781L124.217 11.7722L124.615 11.9688L125.012 12.168L125.407 12.3698L125.801 12.5741L126.193 12.781L126.583 12.9904L126.972 13.2023L127.36 13.4166L127.745 13.6335L128.129 13.8528L128.512 14.0746L128.893 14.2988L129.272 14.5254L129.649 14.7544L130.025 14.9858L130.399 15.2196L130.772 15.4557L131.142 15.6942L131.511 15.935L131.878 16.1782L132.243 16.4236L132.606 16.6713L132.968 16.9212L133.328 17.1734L133.685 17.4279L134.041 17.6845L134.395 17.9434L134.748 18.2044L135.098 18.4676L135.446 18.7329L135.792 19.0004L136.137 19.27L136.479 19.5416L136.82 19.8154L137.158 20.0912L137.494 20.369L137.829 20.6489L138.161 20.9308L138.491 21.2146L138.819 21.5005L139.145 21.7883L139.469 22.078L139.791 22.3696L140.111 22.6632L140.429 22.9586L140.744 23.2558L141.057 23.5549L141.369 23.8559L141.678 24.1586L141.984 24.4631L142.289 24.7694L142.592 25.0775L142.892 25.3872L143.19 25.6987L143.486 26.0119L143.779 26.3267L144.07 26.6432L144.359 26.9613L144.646 27.281L144.93 27.6023L145.213 27.9252L145.493 28.2496L145.77 28.5756L146.045 28.9031L146.318 29.2321L146.589 29.5625L146.857 29.8944L147.123 30.2278L147.387 30.5625L147.648 30.8987L147.907 31.2362L148.163 31.5751L148.417 31.9153L148.669 32.2568L148.919 32.5996L149.166 32.9437L149.41 33.2891L149.652 33.6357L149.892 33.9834L150.13 34.3324L150.364 34.6826L150.597 35.0339L150.827 35.3863L151.055 35.7399L151.28 36.0946L151.503 36.4503L151.723 36.8071L151.941 37.1649L152.157 37.5237L152.37 37.8835L152.58 38.2443L152.788 38.606L152.994 38.9686L153.197 39.3322L153.398 39.6967L153.596 40.062L153.792 40.4282L153.985 40.7952L154.176 41.163L154.365 41.5316L154.551 41.901L154.734 42.2711L154.915 42.642L155.094 43.0136L155.27 43.3858L155.444 43.7588L155.615 44.1324L155.784 44.5066L155.95 44.8814L156.114 45.2568L156.275 45.6328L156.434 46.0094L156.59 46.3864L156.744 46.764L156.895 47.1421L157.045 47.5207L157.191 47.8997L157.335 48.2792L157.477 48.659L157.616 49.0393L157.753 49.42L157.887 49.801L158.019 50.1823L158.149 50.564L158.276 50.946L158.4 51.3283L158.522 51.7108L158.642 52.0936L158.759 52.4767L158.874 52.8599L158.987 53.2433L159.097 53.6269L159.205 54.0107L159.31 54.3946L159.413 54.7786L159.514 55.1628L159.612 55.547L159.708 55.9313L159.801 56.3156L159.893 56.7L159.981 57.0844L160.068 57.4688L160.152 57.8532L160.234 58.2375L160.313 58.6218L160.39 59.006L160.465 59.3902L160.538 59.7742L160.608 60.1582L160.676 60.542L160.741 60.9256L160.805 61.309L160.866 61.692L160.925 62.076L160.981 62.458L161.036 62.841L161.088 63.224L161.138 63.606L161.186 63.988L161.231 64.369L161.274 64.75L161.315 65.131L161.354 65.512L161.391 65.892L161.426 66.272L161.458 66.652L161.489 67.031L161.517 67.41L161.543 67.788L161.567 68.166L161.589 68.544L161.608 68.921L161.626 69.297L161.641 69.673L161.655 70.049L161.666 70.424L161.676 70.798L161.683 71.172L161.689 71.546L161.692 71.919L161.693 72.291V72.663L161.69 73.034L161.686 73.404L161.679 73.774L161.671 74.143L161.66 74.512L161.648 74.88L161.634 75.247L161.618 75.614L161.6 75.98L161.58 76.345L161.558 76.709L161.534 77.073L161.509 77.436L161.482 77.799L161.453 78.16L161.422 78.521L161.389 78.881L161.355 79.24L161.318 79.599L161.28 79.956L161.241 80.313L161.199 80.669L161.156 81.025L161.111 81.379L161.065 81.733L161.017 82.085L160.967 82.437L160.915 82.788L160.862 83.138L160.807 83.488L160.751 83.836L160.693 84.184L160.633 84.53L160.572 84.876L160.509 85.221L160.445 85.565L160.379 85.908L160.312 86.25L160.243 86.591L160.172 86.931L160.1 87.27L160.027 87.608L159.952 87.946L159.876 88.282L159.798 88.617L159.719 88.952L159.639 89.285L159.557 89.617L159.473 89.949L159.389 90.279L159.303 90.609L159.215 90.937L159.127 91.265L159.036 91.591L158.945 91.916L158.852 92.241L158.758 92.564L158.663 92.886L158.567 93.208L158.469 93.528L158.37 93.847L158.27 94.166L158.169 94.483L158.066 94.799L157.962 95.114L157.857 95.428L157.751 95.741L157.644 96.053L157.536 96.364L157.426 96.674L157.315 96.983L157.204 97.291L157.091 97.598L156.977 97.904L156.862 98.208L156.746 98.512L156.629 98.814L156.511 99.116L156.392 99.416L156.272 99.716L156.151 100.014L156.029 100.312L155.906 100.608L155.782 100.903L155.657 101.197L155.532 101.49L155.405 101.782L155.277 102.073L155.149 102.363L155.019 102.652L154.889 102.94L154.758 103.227L154.626 103.513L154.493 103.798L154.359 104.081L154.225 104.364L154.089 104.646L153.953 104.927L153.816 105.206L153.679 105.485L153.54 105.762L153.401 106.039L153.261 106.314L153.12 106.589L152.979 106.862L152.836 107.135L152.693 107.406L152.55 107.677L152.406 107.946L152.261 108.215L152.115 108.482L151.969 108.749L151.822 109.015L151.674 109.279L151.526 109.543L151.377 109.805L151.227 110.067L151.077 110.328L150.926 110.587L150.775 110.846L150.623 111.104L150.471 111.361L150.317 111.617L150.164 111.872L150.01 112.126L149.855 112.379L149.699 112.631L149.544 112.883L149.387 113.133L149.23 113.382L149.073 113.631L148.915 113.879L148.757 114.126L148.598 114.371L148.438 114.617L148.278 114.861L148.118 115.104L147.957 115.346L147.796 115.588L147.634 115.829L147.472 116.069L147.309 116.308L147.146 116.546L146.983 116.783L146.819 117.02L146.655 117.255L146.49 117.49L146.325 117.724L146.159 117.958L145.993 118.19L145.827 118.422L145.66 118.653L145.493 118.883L145.325 119.112L145.157 119.341L144.989 119.569L144.82 119.796L144.651 120.022L144.481 120.248L144.312 120.473L144.141 120.697L143.971 120.92L143.8 121.143L143.629 121.365L143.457 121.587L143.285 121.807L143.113 122.027L142.94 122.246L142.767 122.465L142.594 122.683L142.42 122.9L142.246 123.117L142.072 123.333L141.897 123.548L141.722 123.763L141.547 123.977L141.372 124.19L141.196 124.403L141.019 124.615L140.843 124.827L140.666 125.037L140.489 125.248L140.311 125.458L140.133 125.667L139.955 125.875L139.776 126.083L139.598 126.291L139.419 126.498L139.239 126.704L139.059 126.91L138.879 127.115L138.699 127.32L138.518 127.524L138.337 127.728L138.156 127.931L137.974 128.133L137.792 128.336L137.609 128.537L137.427 128.738L137.244 128.939L137.06 129.139L136.877 129.339L136.693 129.538L136.508 129.737L136.324 129.935L136.139 130.133L135.953 130.33L135.767 130.527L135.581 130.723L135.395 130.919L135.208 131.115L135.021 131.31L134.834 131.504L134.646 131.699L134.458 131.893L134.269 132.086L134.08 132.279L133.891 132.472L133.701 132.664L133.511 132.856L133.32 133.047L133.13 133.238L132.938 133.429L132.747 133.619L132.555 133.809L132.362 133.998L132.17 134.187L131.976 134.376L131.783 134.564L131.589 134.752L131.394 134.94L131.199 135.127L131.004 135.314L130.808 135.501L130.612 135.687L130.415 135.873L130.218 136.058L130.02 136.244L129.822 136.428L129.624 136.613L129.425 136.797L129.226 136.981L129.026 137.164L128.825 137.348L128.624 137.53L128.423 137.713L128.221 137.895L128.019 138.077L127.816 138.258L127.612 138.44L127.408 138.621L127.204 138.801L126.999 138.981L126.793 139.161L126.587 139.341L126.381 139.52L126.173 139.699L125.966 139.878L125.757 140.056L125.548 140.234L125.339 140.412L125.129 140.589L124.918 140.766L124.707 140.943L124.495 141.119L124.282 141.295L124.069 141.471L123.855 141.647L123.641 141.822L123.426 141.997L123.21 142.171L122.994 142.345L122.777 142.519L122.559 142.692L122.341 142.865L122.122 143.038L121.903 143.211L121.682 143.383L121.461 143.555L121.239 143.726L121.017 143.897L120.794 144.068L120.57 144.238L120.345 144.408L120.12 144.578L119.894 144.747L119.667 144.916L119.44 145.084L119.211 145.252L118.982 145.42L118.753 145.587L118.522 145.754L118.291 145.921L118.058 146.087L117.826 146.253L117.592 146.418L117.357 146.583L117.122 146.748L116.886 146.912L116.649 147.076L116.411 147.239L116.172 147.402L115.933 147.564L115.692 147.726L115.451 147.888L115.209 148.049L114.966 148.209L114.722 148.369L114.478 148.529L114.232 148.688L113.986 148.847L113.738 149.005L113.49 149.162L113.241 149.32L112.991 149.476L112.74 149.632L112.488 149.788L112.236 149.943L111.982 150.097L111.727 150.251L111.472 150.404L111.215 150.557L110.958 150.709L110.7 150.861L110.44 151.012L110.18 151.162L109.919 151.312L109.657 151.461L109.393 151.61L109.129 151.758L108.864 151.905L108.598 152.052L108.331 152.198L108.063 152.343L107.794 152.488L107.524 152.631L107.253 152.775L106.981 152.917L106.708 153.059L106.433 153.2L106.158 153.34L105.882 153.48L105.605 153.619L105.327 153.757L105.048 153.894L104.768 154.031L104.486 154.166L104.204 154.301L103.921 154.435L103.636 154.568L103.351 154.701L103.065 154.832L102.777 154.963L102.489 155.093L102.199 155.222L101.909 155.35L101.617 155.477L101.324 155.603L101.031 155.728L100.736 155.853L100.44 155.976L100.143 156.099L99.845 156.22L99.546 156.34L99.246 156.46L98.945 156.578L98.643 156.696L98.34 156.812L98.036 156.928L97.73 157.042L97.424 157.155L97.117 157.267L96.808 157.378L96.499 157.488L96.188 157.597L95.877 157.705L95.564 157.812L95.251 157.917L94.936 158.021L94.62 158.124L94.303 158.226L93.986 158.327L93.667 158.427L93.347 158.525L93.026 158.622L92.704 158.718L92.381 158.812L92.057 158.905L91.732 158.997L91.406 159.088L91.079 159.177L90.751 159.265L90.422 159.352L90.092 159.437L89.761 159.521L89.429 159.604L89.096 159.685L88.762 159.764L88.427 159.843L88.091 159.92L87.755 159.995L87.417 160.069L87.078 160.142L86.738 160.213L86.398 160.282L86.056 160.35L85.713 160.417L85.37 160.482L85.026 160.545L84.68 160.607L84.334 160.667L83.987 160.726L83.639 160.783L83.29 160.839L82.94 160.893L82.59 160.945L82.238 160.995L81.886 161.044L81.533 161.092L81.178 161.137L80.824 161.181L80.468 161.223L80.111 161.264L79.754 161.302L79.396 161.339L79.037 161.375L78.677 161.408L78.317 161.44L77.955 161.47L77.593 161.498L77.231 161.524L76.867 161.548L76.503 161.571L76.138 161.591L75.773 161.61L75.406 161.627L75.039 161.642L74.672 161.655L74.303 161.667L73.934 161.676L73.565 161.683L73.194 161.689L72.824 161.692L72.452 161.694L72.08 161.693L71.707 161.691L71.334 161.686L70.961 161.68L70.586 161.671L70.211 161.66L69.836 161.648L69.46 161.633L69.084 161.616L68.707 161.598L68.33 161.577L67.952 161.554L67.574 161.528L67.195 161.501L66.816 161.472L66.437 161.44L66.057 161.407L65.677 161.371L65.297 161.333L64.916 161.293L64.535 161.25L64.153 161.206L63.771 161.159L63.389 161.11L63.007 161.059L62.624 161.005L62.242 160.95L61.859 160.892L61.475 160.832L61.092 160.769L60.708 160.705L60.325 160.638L59.941 160.569L59.557 160.497L59.173 160.423L58.789 160.347L58.404 160.269L58.02 160.188L57.636 160.105L57.251 160.019L56.867 159.932L56.482 159.841L56.098 159.749L55.714 159.654L55.329 159.557L54.945 159.457L54.561 159.355L54.177 159.251L53.793 159.144L53.41 159.035L53.026 158.924L52.643 158.81L52.26 158.693L51.877 158.575L51.494 158.454L51.112 158.33L50.73 158.204L50.348 158.076L49.966 157.945L49.585 157.812L49.204 157.676L48.824 157.538L48.444 157.397L48.064 157.254L47.685 157.109L47.306 156.961L46.928 156.81L46.55 156.657L46.173 156.502L45.796 156.344L45.42 156.184L45.044 156.021L44.669 155.856L44.295 155.688L43.921 155.518L43.548 155.346L43.175 155.171L42.803 154.993L42.432 154.813L42.062 154.631L41.692 154.446L41.323 154.259L40.955 154.069L40.587 153.876L40.221 153.682L39.855 153.484L39.49 153.285L39.126 153.083L38.763 152.878L38.401 152.671L38.04 152.461L37.68 152.249L37.32 152.035L36.962 151.818L36.605 151.599L36.249 151.377L35.894 151.153L35.54 150.926L35.187 150.697L34.835 150.466L34.484 150.232L34.135 149.995L33.786 149.757L33.439 149.516L33.093 149.272L32.749 149.026L32.405 148.778L32.063 148.527L31.723 148.274L31.383 148.018L31.045 147.761L30.708 147.5L30.373 147.238L30.039 146.973L29.706 146.706L29.375 146.436L29.046 146.164L28.718 145.89L28.391 145.613L28.066 145.334L27.742 145.053L27.42 144.77L27.1 144.484L26.781 144.196L26.464 143.906L26.148 143.613L25.834 143.318L25.522 143.021L25.212 142.722L24.903 142.421L24.596 142.117L24.291 141.811L23.987 141.503L23.685 141.193L23.386 140.88L23.087 140.566L22.791 140.249L22.497 139.93L22.204 139.609L21.914 139.286L21.625 138.961L21.339 138.634L21.054 138.304L20.771 137.973L20.49 137.64L20.212 137.304L19.935 136.967L19.66 136.627L19.388 136.285L19.117 135.942L18.849 135.597L18.583 135.249L18.318 134.9L18.057 134.548L17.797 134.195L17.539 133.84L17.284 133.483L17.031 133.124L16.78 132.763L16.531 132.401L16.285 132.036L16.04 131.67L15.799 131.302L15.559 130.932L15.322 130.561L15.087 130.188L14.855 129.813L14.625 129.436L14.397 129.057L14.172 128.677L13.949 128.295L13.729 127.912L13.511 127.527L13.295 127.14L13.082 126.752L12.872 126.362L12.664 125.971L12.458 125.578L12.255 125.183L12.055 124.787L11.857 124.39L11.662 123.991L11.47 123.591L11.28 123.189L11.092 122.786L10.908 122.381L10.726 121.975L10.546 121.567L10.369 121.159L10.195 120.749L10.024 120.337L9.85501 119.925L9.689 119.511L9.526 119.096L9.366 118.68L9.20801 118.262L9.05301 117.843L8.901 117.424L8.75101 117.003L8.60501 116.58L8.461 116.157L8.32001 115.733L8.18201 115.308L8.04599 114.881L7.914 114.454L7.784 114.026L7.65701 113.596L7.53299 113.166L7.41199 112.735L7.29401 112.303L7.17899 111.87L7.06601 111.436L6.957 111.001L6.85001 110.565L6.74701 110.129L6.646 109.692L6.548 109.254L6.453 108.816L6.36099 108.376L6.272 107.936L6.186 107.496L6.103 107.054L6.02301 106.612L5.94601 106.17L5.87201 105.727L5.80099 105.283L5.733 104.839L5.668 104.394L5.60599 103.949L5.547 103.504L5.491 103.058L5.43799 102.611L5.388 102.164L5.341 101.717L5.297 101.269L5.25601 100.822L5.21799 100.373L5.18301 99.925L5.151 99.476L5.12201 99.027L5.09601 98.578L5.07401 98.129L5.05399 97.679L5.03699 97.23L5.02399 96.78L5.013 96.33L5.00601 95.88L5.00101 95.43L5 94.98L5.00201 94.53L5.00601 94.08L5.01401 93.63L5.02499 93.18L5.039 92.73L5.056 92.281L5.07599 91.831L5.099 91.382L5.125 90.933L5.15399 90.484L5.186 90.035L5.22101 89.587L5.259 89.139L5.29999 88.691L5.345 88.243L5.392 87.796L5.44199 87.349L5.496 86.903L5.552 86.457L5.61099 86.011L5.67401 85.566L5.73901 85.121L5.80701 84.677L5.879 84.234L5.953 83.791L6.03 83.348L6.11099 82.906L6.194 82.465L6.28 82.025L6.36899 81.585L6.46201 81.145L6.55701 80.707L6.655 80.269L6.75601 79.832L6.85999 79.396L6.966 78.96L7.07599 78.526L7.189 78.092L7.30399 77.659L7.423 77.227L7.54401 76.796L7.668 76.366L7.79501 75.936L7.92499 75.508L8.05801 75.081L8.194 74.654L8.332 74.229L8.47299 73.805L8.61801 73.382L8.76401 72.96L8.914 72.539L9.06699 72.119L9.22198 71.701L9.38 71.283L9.54001 70.867L9.70401 70.452L9.87 70.038L10.039 69.626L10.211 69.215L10.385 68.805L10.562 68.396L10.742 67.989L10.924 67.583L11.109 67.179L11.296 66.775L11.487 66.374L11.679 65.973L11.875 65.575L12.073 65.177L12.273 64.781L12.477 64.387L12.682 63.994L12.89 63.603L13.101 63.213L13.314 62.825L13.53 62.439L13.748 62.054L13.969 61.67L14.192 61.289L14.417 60.9089L14.645 60.5306L14.875 60.154L15.108 59.7791L15.343 59.406L15.58 59.0346L15.82 58.6649L16.062 58.2971L16.306 57.931L16.553 57.5668L16.802 57.2044L17.053 56.8438L17.306 56.4851L17.562 56.1283L17.82 55.7733L18.08 55.4203L18.342 55.0691L18.606 54.7199L18.873 54.3727L19.141 54.0274L19.412 53.684L19.685 53.3427L19.959 53.0034L20.236 52.666L20.515 52.3307L20.796 51.9974L21.079 51.6662L21.364 51.3371L21.651 51.01L21.94 50.685L22.23 50.3621L22.523 50.0413L22.817 49.7227L23.114 49.4062L23.412 49.0918L23.712 48.7796L24.014 48.4695L24.318 48.1616L24.623 47.8559L24.93 47.5525L25.239 47.2512L25.55 46.9521L25.862 46.6553L26.176 46.3607L26.492 46.0684L26.809 45.7783L27.128 45.4905L27.449 45.2049L27.771 44.9216L28.095 44.6407L28.42 44.362L28.747 44.0856L29.075 43.8116L29.405 43.5399L29.736 43.2705L30.069 43.0034L30.403 42.7387L30.738 42.4763L31.075 42.2163L31.413 41.9587L31.753 41.7034L32.094 41.4505L32.436 41.2L32.779 40.9519L33.124 40.7062L33.47 40.4628L33.817 40.2219L34.166 39.9834L34.515 39.7473L34.866 39.5136L35.218 39.2823L35.571 39.0535L35.925 38.8271L36.28 38.6031L36.637 38.3816L36.994 38.1625L37.352 37.9458L37.712 37.7316L38.072 37.5199L38.433 37.3106L38.795 37.1037L39.159 36.8993L39.523 36.6974L39.888 36.4979L40.253 36.3009L40.62 36.1063L40.987 35.9143L41.356 35.7246L41.725 35.5375L42.094 35.3528L42.465 35.1706L42.836 34.9908L43.208 34.8136L43.581 34.6387L43.954 34.4664L44.328 34.2965L44.702 34.1291L45.078 33.9641L45.453 33.8017L45.83 33.6416L46.206 33.4841L46.584 33.329L46.962 33.1763L47.34 33.0261L47.719 32.8784L48.098 32.7331L48.478 32.5903L48.858 32.4499L49.238 32.312L49.619 32.1765L50 32.0434L50.382 31.9128L50.764 31.7846L51.146 31.6588L51.528 31.5354L51.911 31.4145L52.294 31.296L52.677 31.1799L53.06 31.0662L53.444 30.9549L53.827 30.846L54.211 30.7395L54.595 30.6354L54.979 30.5337L55.364 30.4343L55.748 30.3373L56.132 30.2427L56.517 30.1504L56.901 30.0605L57.285 29.973L57.67 29.8877L58.054 29.8048L58.438 29.7243L58.823 29.646L59.207 29.5701L59.591 29.4965L59.975 29.4251L60.359 29.3561L60.742 29.2894L61.126 29.2249L61.509 29.1627L61.893 29.1027L62.276 29.0451L62.658 28.9896L63.041 28.9364L63.423 28.8854L63.805 28.8367L64.187 28.7901L64.568 28.7458L64.95 28.7036L65.33 28.6636L65.711 28.6258L66.091 28.5902L66.471 28.5567L66.85 28.5254L67.229 28.4962L67.608 28.4692L67.986 28.4442L68.363 28.4214L68.741 28.4007L69.117 28.382L69.494 28.3654L69.869 28.3509L70.245 28.3385L70.62 28.3281L70.994 28.3197L71.367 28.3134L71.741 28.3091L72.113 28.3067L72.485 28.3064L72.857 28.3081L73.227 28.3117L73.598 28.3173L73.967 28.3248L74.336 28.3343L74.704 28.3457L75.072 28.359L75.439 28.3742L75.805 28.3913L76.171 28.4103L76.535 28.4312L76.9 28.4539L77.263 28.4784L77.626 28.5048L77.988 28.533L78.349 28.563L78.709 28.5948L79.069 28.6284L79.428 28.6638L79.786 28.7009L80.143 28.7398L80.499 28.7804L80.855 28.8227L81.21 28.8667L81.564 28.9125L81.917 28.9599L82.269 29.009L82.621 29.0597L82.971 29.1121L83.321 29.1661L83.67 29.2218L84.018 29.2791L84.365 29.3379L84.711 29.3984L85.056 29.4604L85.4 29.5239L85.744 29.5891L86.086 29.6557L86.428 29.7239L86.768 29.7936L87.108 29.8647L87.447 29.9374L87.785 30.0115L88.121 30.0871L88.457 30.1641L88.792 30.2426L89.126 30.3224L89.459 30.4037L89.791 30.4864L90.121 30.5704L90.451 30.6558L90.78 30.7426L91.108 30.8307L91.435 30.9201L91.761 31.0108L92.086 31.1029L92.41 31.1962L92.733 31.2908L93.054 31.3867L93.375 31.4838L93.695 31.5822L94.014 31.6818L94.331 31.7826L94.648 31.8846L94.964 31.9878L95.278 32.0922L95.592 32.1977L95.904 32.3044L96.216 32.4123L96.526 32.5212L96.836 32.6313L97.144 32.7425L97.451 32.8547L97.758 32.9681L98.063 33.0825L98.367 33.1979L98.67 33.3144L98.972 33.432L99.273 33.5505L99.573 33.6701L99.872 33.7907L100.17 33.9122L100.466 34.0347L100.762 34.1582L101.057 34.2826L101.35 34.408L101.643 34.5343L101.935 34.6615L102.225 34.7896L102.514 34.9186L102.803 35.0485L103.09 35.1792L103.377 35.3108L103.662 35.4433L103.946 35.5766L104.229 35.7107L104.511 35.8457L104.793 35.9814L105.073 36.118L105.352 36.2553L105.63 36.3935L105.907 36.5323L106.183 36.672L106.458 36.8124L106.732 36.9535L107.005 37.0953L107.277 37.2379L107.548 37.3812L107.818 37.5252L108.087 37.6698L108.355 37.8152L108.622 37.9612L108.888 38.1079L109.153 38.2552L109.417 38.4032L109.68 38.5518L109.942 38.701L110.203 38.8509L110.463 39.0013L110.723 39.1524L110.981 39.304L111.238 39.4563L111.495 39.6091L111.75 39.7625L112.005 39.9164L112.258 40.0709L112.511 40.226L112.763 40.3816L113.013 40.5377L113.263 40.6944L113.512 40.8515L113.76 41.0092L114.008 41.1674L114.254 41.326L114.5 41.4852L114.744 41.6449L114.988 41.805L115.231 41.9656L115.473 42.1267L115.714 42.2882L115.954 42.4502L116.193 42.6126L116.432 42.7755L116.67 42.9388L116.907 43.1025L117.143 43.2667L117.378 43.4312L117.613 43.5962L117.846 43.7616L118.079 43.9275L118.311 44.0937L118.543 44.2603L118.773 44.4273L119.003 44.5947L119.232 44.7625L119.46 44.9307L119.687 45.0992L119.914 45.2681L120.14 45.4374L120.365 45.607L120.59 45.7771L120.814 45.9474L121.037 46.1182L121.259 46.2892L121.481 46.4607L121.702 46.6324L121.922 46.8046L122.142 46.977L122.361 47.1498L122.579 47.323L122.796 47.4965L123.013 47.6703L123.23 47.8444L123.445 48.0189L123.66 48.1937L123.874 48.3689L124.088 48.5443L124.301 48.7201L124.514 48.8962L124.725 49.0726L124.937 49.2494L125.147 49.4265L125.357 49.6039L125.567 49.7816L125.776 49.9596L125.984 50.138L126.192 50.3167L126.399 50.4956L126.605 50.675L126.812 50.8546L127.017 51.0346L127.222 51.2148L127.426 51.3954L127.63 51.5763L127.834 51.7576L128.037 51.9391L128.239 52.121L128.441 52.3032L128.642 52.4858L128.843 52.6687L129.043 52.8519L129.243 53.0354L129.443 53.2192L129.642 53.4034L129.84 53.588L130.038 53.7729L130.236 53.9581L130.433 54.1436L130.629 54.3295L130.825 54.5158L131.021 54.7024L131.217 54.8893L131.411 55.0766L131.606 55.2643L131.8 55.4523L131.994 55.6407L132.187 55.8295L132.379 56.0186L132.572 56.2081L132.764 56.398L132.955 56.5883L133.147 56.7789L133.337 56.97L133.528 57.1614L133.718 57.3532L133.908 57.5455L134.097 57.7381L134.286 57.9311L134.474 58.1246L134.662 58.3184L134.85 58.5127L135.038 58.7074L135.225 58.9026L135.412 59.0982L135.598 59.2942L135.784 59.4906L135.97 59.6875L136.155 59.8849L136.34 60.0827L136.525 60.281L136.709 60.4797L136.893 60.6789L137.077 60.8786L137.26 61.079L137.443 61.279L137.626 61.481L137.808 61.682L137.99 61.884L138.172 62.087L138.353 62.29L138.534 62.494L138.715 62.698L138.895 62.903L139.075 63.108L139.255 63.314L139.434 63.521L139.614 63.727L139.792 63.935L139.971 64.143L140.149 64.352L140.327 64.561L140.504 64.771L140.682 64.981L140.858 65.192L141.035 65.404L141.211 65.616L141.387 65.829L141.563 66.042L141.738 66.256L141.913 66.471L142.088 66.686L142.262 66.902L142.436 67.119L142.609 67.336L142.783 67.554L142.956 67.773L143.128 67.992L143.3 68.212L143.472 68.433L143.644 68.654L143.815 68.876L143.986 69.099L144.157 69.323L144.327 69.547L144.496 69.772L144.666 69.998L144.835 70.224L145.004 70.451L145.172 70.679L145.34 70.908L145.507 71.137L145.675 71.368L145.841 71.599L146.008 71.83L146.174 72.063L146.339 72.296L146.504 72.53L146.669 72.765L146.833 73.001L146.997 73.238L147.161 73.475L147.324 73.714L147.486 73.953L147.649 74.193L147.81 74.433L147.972 74.675L148.132 74.918L148.293 75.161L148.453 75.405L148.612 75.65L148.771 75.896L148.929 76.143L149.087 76.391L149.244 76.64L149.401 76.889L149.558 77.14L149.713 77.391L149.869 77.643L150.023 77.897L150.177 78.151L150.331 78.406L150.484 78.662L150.637 78.919L150.788 79.177L150.94 79.436L151.09 79.695L151.241 79.956L151.39 80.218L151.539 80.481L151.687 80.744L151.835 81.009L151.982 81.275L152.128 81.541L152.273 81.809L152.418 82.077L152.563 82.347L152.706 82.618L152.849 82.889L152.991 83.162L153.133 83.435L153.273 83.71L153.413 83.986L153.552 84.262L153.691 84.54L153.828 84.819L153.965 85.098L154.101 85.379L154.237 85.661L154.371 85.944L154.505 86.227L154.637 86.512L154.769 86.798L154.901 87.085L155.031 87.373L155.16 87.662L155.289 87.952L155.416 88.243L155.543 88.536L155.668 88.829L155.793 89.123L155.917 89.418L156.04 89.715L156.162 90.012L156.283 90.311L156.403 90.61L156.522 90.911L156.64 91.212L156.757 91.515L156.872 91.819L156.987 92.124L157.101 92.429L157.214 92.736L157.325 93.044L157.436 93.353L157.545 93.663L157.654 93.974L157.761 94.286L157.867 94.599L157.971 94.914L158.075 95.229L158.178 95.545L158.279 95.862L158.379 96.181L158.478 96.5L158.575 96.821L158.672 97.142L158.767 97.464L158.861 97.788L158.953 98.112L159.044 98.438L159.134 98.764L159.223 99.092L159.31 99.421L159.396 99.75L159.481 100.081L159.564 100.412L159.646 100.745L159.726 101.078L159.805 101.412L159.883 101.748L159.959 102.084L160.034 102.422L160.107 102.76L160.179 103.099L160.249 103.44L160.318 103.781L160.385 104.123L160.451 104.466L160.515 104.81L160.577 105.155L160.638 105.5L160.698 105.847L160.756 106.195L160.812 106.543L160.867 106.893L160.92 107.243L160.971 107.594L161.021 107.946L161.069 108.299L161.115 108.652L161.16 109.007L161.203 109.362L161.244 109.718L161.284 110.075L161.322 110.433L161.358 110.792L161.392 111.151L161.425 111.511L161.455 111.872L161.484 112.233L161.511 112.596L161.537 112.959L161.56 113.323L161.582 113.687L161.601 114.053L161.619 114.419L161.635 114.785L161.649 115.153L161.661 115.521L161.671 115.889L161.68 116.259L161.686 116.629L161.69 116.999L161.693 117.37V117.742L161.692 118.114L161.688 118.487L161.683 118.861L161.675 119.235L161.666 119.609L161.654 119.985L161.64 120.36L161.624 120.736L161.607 121.113L161.587 121.49L161.565 121.867L161.541 122.245L161.514 122.624L161.486 123.003L161.455 123.382L161.423 123.761L161.388 124.141L161.351 124.522L161.312 124.902L161.271 125.283L161.227 125.665L161.181 126.046L161.134 126.428L161.083 126.81L161.031 127.193L160.977 127.576L160.92 127.958L160.861 128.342L160.799 128.725L160.736 129.108L160.67 129.492L160.602 129.876L160.531 130.26L160.459 130.644L160.384 131.028L160.306 131.412L160.227 131.797L160.145 132.181L160.06 132.565L159.974 132.95L159.885 133.334L159.793 133.718L159.699 134.103L159.603 134.487L159.505 134.871L159.404 135.255L159.301 135.639L159.195 136.023L159.087 136.407L158.977 136.791L158.864 137.174L158.749 137.557L158.632 137.94L158.512 138.323L158.389 138.706L158.264 139.088L158.137 139.47L158.007 139.851L157.875 140.233L157.741 140.614L157.604 140.994L157.464 141.375L157.322 141.754L157.178 142.134L157.031 142.513L156.882 142.891L156.73 143.269L156.576 143.647L156.42 144.024L156.261 144.401L156.099 144.776L155.935 145.152L155.769 145.527L155.6 145.901L155.428 146.274L155.254 146.647L155.078 147.019L154.899 147.391L154.718 147.762L154.534 148.132L154.348 148.501L154.16 148.87L153.968 149.237L153.775 149.604L153.579 149.97L153.38 150.336L153.179 150.7L152.976 151.064L152.77 151.426L152.562 151.788L152.351 152.148L152.138 152.508L151.922 152.867L151.704 153.225L151.483 153.581L151.26 153.937L151.035 154.291L150.807 154.645L150.576 154.997L150.344 155.348L150.109 155.699L149.871 156.047L149.631 156.395L149.389 156.742L149.144 157.087L148.897 157.431L148.647 157.773L148.395 158.115L148.141 158.455L147.884 158.794L147.625 159.131L147.363 159.467L147.1 159.802L146.833 160.135L146.565 160.467L146.294 160.797L146.021 161.126L145.746 161.453L145.468 161.779L145.188 162.103L144.905 162.426L144.621 162.747L144.334 163.067L144.045 163.385L143.753 163.701L143.459 164.016L143.163 164.329L142.865 164.64L142.565 164.95L142.262 165.258L141.957 165.564L141.65 165.868L141.341 166.171L141.03 166.472L140.716 166.771L140.401 167.068L140.083 167.363L139.763 167.656L139.441 167.948L139.116 168.237L138.79 168.525L138.462 168.811L138.131 169.094L137.799 169.376L137.464 169.656L137.128 169.933L136.789 170.209L136.449 170.483L136.106 170.754L135.762 171.023L135.415 171.291L135.067 171.556L134.716 171.819L134.364 172.08L134.01 172.338L133.654 172.595L133.296 172.849L132.936 173.101L132.574 173.351L132.211 173.598L131.845 173.843L131.478 174.086L131.109 174.327L130.739 174.565L130.366 174.801L129.992 175.035L129.616 175.266L129.238 175.495L128.859 175.721L128.478 175.945L128.095 176.167L127.711 176.386L127.325 176.602L126.938 176.817L126.549 177.028L126.158 177.237L125.766 177.444L125.372 177.648L124.977 177.85L124.58 178.049L124.182 178.245L123.782 178.439L123.381 178.63L122.978 178.819L122.574 179.005L122.169 179.188L121.762 179.369L121.354 179.547L120.945 179.722L120.534 179.895L120.122 180.065L119.709 180.232L119.294 180.397L118.879 180.558L118.462 180.717L118.044 180.874L117.624 181.027L117.204 181.178L116.782 181.326L116.36 181.471L115.936 181.613L115.511 181.753L115.085 181.89L114.658 182.024L114.23 182.155L113.801 182.283L113.372 182.408L112.941 182.531L112.509 182.65L112.077 182.767L111.643 182.881L111.209 182.991L110.774 183.099L110.338 183.204L109.901 183.307L109.463 183.406L109.025 183.502L108.586 183.595L108.147 183.686L107.706 183.773L107.265 183.858L106.824 183.939L106.381 184.017L105.939 184.093L105.495 184.166L105.051 184.235L104.607 184.302L104.162 184.365L103.717 184.426L103.271 184.483L102.825 184.538L102.378 184.589L101.931 184.638L101.483 184.683L101.036 184.725L100.588 184.765L100.139 184.801L99.691 184.834L99.242 184.865L98.793 184.892L98.343 184.916L97.894 184.937L97.444 184.955L96.995 184.97L96.545 184.982L96.095 184.991L95.645 184.997L95.195 185H94.745L94.295 184.997L93.845 184.99L93.395 184.981L92.945 184.968L92.496 184.953L92.046 184.935L91.597 184.913L91.147 184.888L90.698 184.861L90.25 184.83L89.801 184.796L89.353 184.76L88.905 184.72L88.457 184.677L88.01 184.631L87.563 184.582L87.116 184.531L86.67 184.476L86.224 184.418L85.779 184.357L85.334 184.293L84.889 184.226L84.446 184.156L84.002 184.083L83.56 184.007L83.117 183.928L82.676 183.846L82.235 183.762L81.795 183.674L81.355 183.583L80.916 183.489L80.478 183.393L80.041 183.293L79.604 183.191L79.168 183.085L78.733 182.977L78.299 182.866L77.866 182.751L77.433 182.634L77.002 182.514L76.571 182.392L76.141 182.266L75.713 182.137L75.285 182.006L74.858 181.872L74.432 181.735L74.008 181.595L73.584 181.452L73.162 181.306L72.74 181.158L72.32 181.007L71.901 180.853L71.483 180.696L71.066 180.537L70.65 180.375L70.236 180.21L69.823 180.042L69.411 179.872L69.001 179.699L68.591 179.523L68.183 179.345L67.777 179.164L67.372 178.98L66.968 178.794L66.566 178.605L66.165 178.413L65.765 178.219L65.367 178.022L64.971 177.823L64.575 177.621L64.182 177.417L63.79 177.21L63.399 177L63.011 176.788L62.623 176.574L62.238 176.357L61.854 176.137L61.471 175.915L61.09 175.691L60.711 175.464L60.334 175.235L59.958 175.004L59.584 174.77L59.212 174.534L58.841 174.295L58.473 174.054L58.106 173.811L57.741 173.565L57.377 173.318L57.016 173.068L56.656 172.815L56.299 172.561L55.943 172.304L55.589 172.045L55.237 171.784L54.887 171.521L54.539 171.255L54.192 170.988L53.848 170.718L53.506 170.446L53.165 170.172L52.827 169.896L52.491 169.619L52.157 169.339L51.824 169.057L51.494 168.773L51.166 168.487L50.84 168.199L50.516 167.909L50.195 167.617L49.875 167.324L49.557 167.028L49.242 166.731L48.929 166.432L48.618 166.131L48.309 165.828L48.002 165.523L47.697 165.217L47.395 164.909L47.095 164.599L46.797 164.287L46.501 163.974L46.208 163.659L45.917 163.343L45.628 163.024L45.341 162.705L45.057 162.383L44.775 162.06L44.495 161.736L44.218 161.41L43.942 161.082L43.67 160.753L43.399 160.423L43.131 160.091L42.865 159.757L42.602 159.422L42.34 159.086L42.082 158.749L41.825 158.41L41.571 158.069L41.32 157.728L41.07 157.385L40.823 157.041L40.579 156.695L40.337 156.349L40.097 156.001L39.86 155.652L39.625 155.302L39.393 154.95L39.163 154.598L38.935 154.244L38.71 153.89L38.487 153.534L38.267 153.177L38.049 152.819L37.834 152.46L37.621 152.1L37.41 151.74L37.202 151.378L36.997 151.015L36.794 150.652L36.593 150.287L36.395 149.922L36.199 149.555L36.006 149.188L35.815 148.821L35.627 148.452L35.441 148.082L35.258 147.712L35.077 147.341L34.898 146.97L34.722 146.598L34.549 146.225L34.378 145.851L34.209 145.477L34.043 145.102L33.879 144.726L33.718 144.35L33.559 143.974L33.403 143.597L33.249 143.219L33.098 142.841L32.949 142.462L32.802 142.083L32.658 141.704L32.517 141.324L32.378 140.944L32.241 140.563L32.107 140.182L31.975 139.801L31.846 139.419L31.719 139.037L31.594 138.655L31.472 138.272L31.353 137.889L31.235 137.506L31.12 137.123L31.008 136.74L30.898 136.356L30.79 135.972L30.685 135.588L30.582 135.204L30.482 134.82L30.384 134.436L30.288 134.052L30.194 133.667L30.103 133.283L30.015 132.898L29.928 132.514L29.844 132.13L29.763 131.745L29.683 131.361L29.606 130.977L29.532 130.593L29.459 130.209L29.389 129.825L29.321 129.441L29.256 129.057L29.192 128.674L29.131 128.291L29.073 127.907L29.016 127.525L28.962 127.142L28.91 126.759L28.86 126.377L28.812 125.995L28.767 125.614L28.724 125.233L28.683 124.852L28.644 124.471L28.607 124.091L28.573 123.711L28.54 123.331L28.51 122.952L28.482 122.573L28.456 122.195L28.432 121.817L28.411 121.44L28.391 121.063L28.373 120.686L28.358 120.31L28.344 119.935L28.333 119.559L28.324 119.185L28.316 118.811L28.311 118.438L28.308 118.065L28.307 117.693V117.321L28.31 116.95L28.315 116.579L28.321 116.209L28.33 115.84L28.34 115.472L28.353 115.104L28.367 114.736L28.383 114.37L28.401 114.004L28.421 113.639L28.443 113.274L28.467 112.911L28.492 112.548L28.52 112.185L28.549 111.824L28.58 111.463L28.612 111.103L28.647 110.744L28.683 110.385L28.721 110.028L28.761 109.671L28.803 109.315L28.846 108.959L28.891 108.605L28.937 108.252L28.986 107.899L29.036 107.547L29.087 107.196L29.14 106.846L29.195 106.497L29.252 106.148L29.31 105.801L29.37 105.454L29.431 105.109L29.494 104.764L29.558 104.42L29.624 104.077L29.691 103.735L29.76 103.394L29.831 103.054L29.903 102.715L29.976 102.377L30.051 102.039L30.127 101.703L30.205 101.368L30.284 101.034L30.365 100.7L30.447 100.368L30.53 100.036L30.615 99.706L30.701 99.377L30.789 99.048L30.877 98.721L30.968 98.395L31.059 98.069L31.152 97.745L31.246 97.421L31.341 97.099L31.438 96.778L31.535 96.458L31.634 96.138L31.735 95.82L31.836 95.503L31.939 95.187L32.042 94.872L32.147 94.558L32.254 94.245L32.361 93.933L32.469 93.622L32.579 93.312L32.689 93.003L32.801 92.695L32.914 92.389L33.028 92.083L33.143 91.778L33.259 91.475L33.376 91.172L33.494 90.871L33.613 90.57L33.733 90.271L33.854 89.972L33.976 89.675L34.099 89.379L34.223 89.084L34.348 88.79L34.474 88.497L34.601 88.205L34.728 87.914L34.857 87.624L34.987 87.335L35.117 87.047L35.248 86.76L35.38 86.474L35.513 86.19L35.647 85.906L35.781 85.623L35.917 85.342L36.053 85.061L36.19 84.781L36.328 84.503L36.466 84.225L36.605 83.949L36.745 83.673L36.886 83.399L37.028 83.125L37.17 82.853L37.313 82.581L37.457 82.311L37.601 82.042L37.746 81.773L37.892 81.506L38.038 81.239L38.185 80.974L38.333 80.709L38.481 80.446L38.63 80.183L38.779 79.921L38.93 79.661L39.08 79.401L39.232 79.142L39.384 78.884L39.536 78.628L39.689 78.372L39.843 78.117L39.997 77.863L40.152 77.61L40.307 77.357L40.463 77.106L40.62 76.856L40.777 76.606L40.934 76.358L41.092 76.11L41.25 75.863L41.409 75.618L41.569 75.373L41.729 75.128L41.889 74.885L42.05 74.643L42.211 74.401L42.373 74.161L42.535 73.921L42.698 73.682L42.861 73.444L43.024 73.206L43.188 72.97L43.353 72.734L43.518 72.499L43.683 72.265L43.848 72.032L44.014 71.799L44.181 71.568L44.348 71.337L44.515 71.107L44.682 70.877L44.85 70.649L45.019 70.421L45.188 70.194L45.357 69.968L45.526 69.742L45.696 69.517L45.866 69.293L46.037 69.07L46.208 68.847L46.379 68.625L46.551 68.404L46.722 68.183L46.895 67.963L47.067 67.744L47.24 67.525L47.414 67.307L47.587 67.09L47.761 66.874L47.936 66.658L48.11 66.442L48.285 66.228L48.461 66.014L48.636 65.8L48.812 65.588L48.988 65.376L49.165 65.164L49.342 64.953L49.519 64.743L49.697 64.533L49.875 64.324L50.053 64.115L50.231 63.907L50.41 63.7L50.589 63.493L50.769 63.287L50.949 63.081L51.129 62.876L51.309 62.671L51.49 62.467L51.671 62.263L51.853 62.06L52.034 61.857L52.216 61.655L52.399 61.454L52.581 61.253L52.764 61.052L52.948 60.852L53.132 60.6524L53.316 60.4532L53.5 60.2545L53.685 60.0563L53.87 59.8586L54.055 59.6613L54.241 59.4644L54.427 59.268L54.613 59.0721L54.8 58.8766L54.987 58.6815L55.175 58.4868L55.363 58.2926L55.551 58.0988L55.739 57.9054L55.928 57.7124L56.118 57.5198L56.307 57.3277L56.497 57.1359L56.688 56.9445L56.879 56.7535L57.07 56.5629L57.262 56.3727L57.454 56.1829L57.646 55.9934L57.839 55.8043L58.032 55.6156L58.226 55.4273L58.42 55.2393L58.615 55.0517L58.809 54.8644L59.005 54.6775L59.201 54.4909L59.397 54.3047L59.594 54.1189L59.791 53.9334L59.988 53.7482L60.186 53.5634L60.385 53.3789L60.584 53.1947L60.783 53.0109L60.983 52.8274L61.184 52.6443L61.385 52.4614L61.586 52.2789L61.788 52.0968L61.99 51.9149L62.193 51.7334L62.397 51.5522L62.601 51.3713L62.805 51.1908L63.01 51.0106L63.216 50.8306L63.422 50.6511L63.629 50.4718L63.836 50.2928L64.044 50.1142L64.252 49.9359L64.461 49.7579L64.671 49.5802L64.881 49.4029L65.091 49.2258L65.303 49.0491L65.515 48.8727L65.727 48.6967L65.94 48.5209L66.154 48.3455L66.369 48.1704L66.584 47.9956L66.799 47.8212L67.016 47.6471L67.233 47.4733L67.45 47.2999L67.669 47.1268L67.888 46.954L68.107 46.7816L68.328 46.6095L68.549 46.4378L68.77 46.2664L68.993 46.0954L69.216 45.9247L69.44 45.7544L69.665 45.5844L69.89 45.4148L70.116 45.2456L70.343 45.0767L70.57 44.9082L70.799 44.7401L71.028 44.5724L71.258 44.405L71.488 44.2381L71.72 44.0715L71.952 43.9054L72.185 43.7396L72.419 43.5742L72.653 43.4093L72.889 43.2448L73.125 43.0807L73.362 42.917L73.6 42.7537L73.838 42.5909L74.078 42.4286L74.318 42.2666L74.56 42.1052L74.802 41.9442L75.045 41.7836L75.288 41.6236L75.533 41.464L75.779 41.3049L76.025 41.1463L76.272 40.9882L76.521 40.8306L76.77 40.6735L77.02 40.5169L77.271 40.3608L77.523 40.2053L77.776 40.0503L78.029 39.8959L78.284 39.742L78.539 39.5887L78.796 39.436L79.053 39.2838L79.312 39.1322L79.571 38.9812L79.832 38.8309L80.093 38.6811L80.355 38.5319L80.618 38.3834L80.882 38.2355L81.148 38.0883L81.414 37.9417L81.681 37.7958L81.949 37.6505L82.218 37.5059L82.488 37.3621L82.759 37.2189L83.031 37.0764L83.305 36.9346L83.579 36.7936L83.854 36.6533L84.13 36.5138L84.407 36.375L84.685 36.237L84.965 36.0998L85.245 35.9633L85.526 35.8277L85.808 35.6928L86.092 35.5588L86.376 35.4256L86.662 35.2933L86.948 35.1617L87.235 35.0311L87.524 34.9013L87.814 34.7725L88.104 34.6445L88.396 34.5174L88.689 34.3912L88.982 34.266L89.277 34.1417L89.573 34.0183L89.87 33.8959L90.168 33.7745L90.467 33.6541L90.767 33.5347L91.068 33.4163L91.37 33.2989L91.674 33.1825L91.978 33.0672L92.283 32.9529L92.589 32.8397L92.897 32.7276L93.205 32.6166L93.515 32.5066L93.825 32.3978L94.137 32.2901L94.45 32.1836L94.763 32.0782L95.078 31.974L95.394 31.871L95.711 31.7691L96.029 31.6685L96.347 31.569L96.667 31.4708L96.988 31.3739L97.31 31.2782L97.633 31.1837L97.957 31.0905L98.282 30.9987L98.608 30.9081L98.935 30.8189L99.263 30.7309L99.592 30.6443L99.923 30.5591L100.254 30.4753L100.586 30.3928L100.919 30.3117L101.253 30.232L101.588 30.1538L101.923 30.0769L102.26 30.0015L102.598 29.9276L102.937 29.8552L103.277 29.7842L103.618 29.7147L103.959 29.6467L104.302 29.5803L104.645 29.5154L104.99 29.452L105.335 29.3902L105.681 29.33L106.028 29.2713L106.377 29.2143L106.725 29.1589L107.075 29.105L107.426 29.0529L107.778 29.0023L108.13 28.9535L108.483 28.9063L108.837 28.8608L109.192 28.817L109.548 28.7749L109.905 28.7345L110.262 28.6959L110.62 28.659L110.979 28.6238L111.339 28.5905L111.699 28.5589L112.061 28.5291L112.423 28.5012L112.785 28.475L113.149 28.4507L113.513 28.4283L113.878 28.4077L114.244 28.3889L114.61 28.3721L114.977 28.3571L115.345 28.3441L115.713 28.3329L116.082 28.3237L116.452 28.3164L116.822 28.3111L117.193 28.3077L117.564 28.3064L117.936 28.3069L118.309 28.3095L118.682 28.3141L119.056 28.3207L119.43 28.3294L119.805 28.34L120.181 28.3527L120.556 28.3675L120.933 28.3844L121.31 28.4033L121.687 28.4243L122.065 28.4474L122.443 28.4726L122.821 28.5L123.2 28.5295L123.58 28.5611L123.96 28.5948L124.34 28.6308L124.72 28.6688L125.101 28.7091L125.482 28.7515L125.864 28.7962L126.246 28.843L126.628 28.8921L127.01 28.9434L127.393 28.9969L127.775 29.0526L128.158 29.1106L128.542 29.1708L128.925 29.2334L129.309 29.2981L129.692 29.3652L130.076 29.4345L130.46 29.5061L130.844 29.5801L131.229 29.6563L131.613 29.7349L131.997 29.8157L132.382 29.8989L132.766 29.9845L133.15 30.0724L133.535 30.1626L133.919 30.2552L134.303 30.3501L134.688 30.4474L135.072 30.5471L135.456 30.6491L135.84 30.7536L136.224 30.8604L136.607 30.9696L136.991 31.0812L137.374 31.1952L137.757 31.3117L138.14 31.4305L138.523 31.5517L138.905 31.6754L139.287 31.8015L139.669 31.93L140.051 32.061L140.432 32.1944L140.812 32.3302L141.193 32.4685L141.573 32.6092L141.953 32.7523L142.332 32.8979L142.71 33.046L143.089 33.1965L143.467 33.3495L143.844 33.5049L144.221 33.6628L144.597 33.8232L144.972 33.986L145.347 34.1513L145.722 34.319L146.096 34.4892L146.469 34.6619L146.841 34.837L147.213 35.0146L147.584 35.1947L147.955 35.3773L148.325 35.5623L148.693 35.7498L149.062 35.9397L149.429 36.1321L149.795 36.327L150.161 36.5243L150.526 36.7241L150.89 36.9264L151.253 37.1311L151.615 37.3383L151.976 37.5479L152.336 37.76L152.695 37.9745L153.054 38.1915L153.411 38.4109L153.767 38.6328L154.122 38.8571L154.476 39.0838L154.829 39.313L155.181 39.5446L155.531 39.7786L155.881 40.015L156.229 40.2539L156.576 40.4951L156.922 40.7388L157.266 40.9848L157.61 41.2332L157.952 41.4841L158.292 41.7373L158.632 41.9929L158.97 42.2508L159.307 42.5111L159.642 42.7738L159.976 43.0388L160.308 43.3062L160.639 43.5759L160.969 43.848L161.297 44.1223L161.623 44.399L161.949 44.678L162.272 44.9593L162.594 45.2428L162.914 45.5287L163.233 45.8168L163.55 46.1072L163.866 46.3998L164.179 46.6947L164.492 46.9918L164.802 47.2912L165.111 47.5928L165.418 47.8965L165.723 48.2025L166.026 48.5107L166.328 48.821L166.628 49.1335L166.926 49.4482L167.222 49.765L167.516 50.0839L167.809 50.405L168.099 50.7282L168.388 51.0534L168.674 51.3808L168.959 51.7102L169.241 52.0417L169.522 52.3753L169.801 52.7108L170.077 53.0484L170.352 53.3881L170.624 53.7297L170.895 54.0733L171.163 54.4188L171.429 54.7663L171.693 55.1158L171.955 55.4672L172.215 55.8205L172.472 56.1757L172.728 56.5328L172.981 56.8918L173.231 57.2526L173.48 57.6152L173.726 57.9797L173.97 58.346L174.212 58.7141L174.451 59.084L174.689 59.4556L174.923 59.829L175.156 60.2041L175.385 60.5809L175.613 60.9594L175.838 61.34L176.061 61.721L176.281 62.105L176.499 62.49L176.714 62.877L176.927 63.265L177.138 63.655L177.345 64.047L177.551 64.44L177.753 64.834L177.954 65.23L178.151 65.628L178.346 66.027L178.539 66.427L178.729 66.829L178.916 67.232L179.101 67.637L179.282 68.043L179.462 68.451L179.638 68.859L179.812 69.269L179.984 69.681L180.152 70.093L180.318 70.507L180.481 70.922L180.641 71.339L180.799 71.756L180.954 72.175L181.106 72.595L181.255 73.016L181.402 73.438L181.545 73.861L181.686 74.286L181.824 74.711L181.96 75.138L182.092 75.565L182.222 75.993L182.348 76.423L182.472 76.853L182.593 77.284L182.711 77.717L182.826 78.15L182.939 78.584L183.048 79.018L183.154 79.454L183.258 79.89L183.359 80.327L183.456 80.765L183.551 81.204L183.643 81.643L183.731 82.083L183.817 82.524L183.9 82.965L183.98 83.407L184.057 83.85L184.131 84.293L184.202 84.736L184.27 85.181L184.335 85.625L184.397 86.07L184.456 86.516L184.512 86.962L184.565 87.409L184.614 87.855L184.661 88.303L184.705 88.75L184.746 89.198L184.784 89.646L184.819 90.095L184.85 90.544L184.879 90.993L184.905 91.442L184.927 91.891L184.947 92.341L184.963 92.79L184.977 93.24L184.987 93.69L184.994 94.14L184.999 94.59L185 95Z" stroke="currentColor" stroke-width="4"/>
</svg>
