<svg width="190" height="190" viewBox="0 0 190 190" fill="none" xmlns="http://www.w3.org/2000/svg">
<rect width="190" height="190" fill="none"/>
<path d="M173 153.457C173 164.27 164.27 173 153.457 173H35.5436C24.7295 173 16 164.27 16 153.457V35.5436C16 24.7294 24.7946 16 35.5436 16H153.457C164.27 16 173 24.7294 173 35.5436V153.457Z" fill="currentColor" fill-opacity="0.8"/>
<path d="M16 95V153.533C16 164.304 24.7909 173 35.6005 173H153.4C164.209 173 173 164.304 173 153.533V95H16Z" fill="currentColor"/>
<path opacity="0.3" d="M154 151.663C154 154.057 152.408 156 150.434 156H130.566C128.592 156 127 154.057 127 151.663V37.3374C127 34.9422 128.592 33 130.566 33H150.434C152.408 33 154 34.9422 154 37.3374V151.663Z" fill="white"/>
</svg>
