<svg height="330" viewBox="0 0 505 330" width="505" xmlns="http://www.w3.org/2000/svg" xmlns:xlink="http://www.w3.org/1999/xlink"><mask id="a" fill="#fff"><path d="m.08777264.5133375h513.88689236v350.3989125h-513.88689236z" fill="#fff" fill-rule="evenodd"/></mask><g fill="none" fill-rule="evenodd" transform="translate(-9)"><path d="m298.083216 328.610587v-13.959562h-44.405644v5.993325c.100939.057037.26917.13455.522247.21645.627575.201825 1.053272.7839 1.053272 1.446412v.387563c0 .839475-.687552 1.523925-1.531632 1.523925l-.18286-.0117c-1.710104-.206213-2.504446-1.149525-2.978419-1.711125-.042423-.05265-.092161-.109688-.138973-.1638-.036572.124312-.073144.299812-.093624.535275-.071681.788287-.722662 1.383525-1.515541 1.383525h-27.478689c-.79288 0-1.445323-.595238-1.517004-1.382063-.020481-.238387-.058515-.416812-.095087-.541125-.042424.054113-.093624.114075-.137511.168188-.473972.5616-1.266852 1.50345-2.97403 1.711125l-.187248.0117c-.84408 0-1.531633-.685913-1.531633-1.52685v-.383175c0-.662513.424235-1.243125 1.056198-1.449338.251615-.080437.418383-.159412.519321-.21645v-5.991862h-38.72529v5.993325c.099475.057037.269169.136012.520784.21645.629037.200362 1.054735.7839 1.054735 1.446412v.387563c0 .839475-.687553 1.523925-1.531633 1.523925l-.18286-.0117c-1.711566-.206213-2.505909-1.149525-2.979881-1.712588-.042424-.051187-.090698-.108225-.138973-.162337-.03511.12285-.071681.29835-.093625.536737-.070218.786825-.722661 1.382063-1.514078 1.382063h-27.480152c-.792879 0-1.44386-.595238-1.515541-1.382063-.021943-.241312-.058515-.418275-.095087-.542587-.042423.054112-.093624.115537-.13751.168187-.473973.5616-1.266852 1.504913-2.97403 1.712588l-.187249.0117c-.845543 0-1.533095-.685913-1.533095-1.52685v-.383175c0-.662513.424234-1.243125 1.056197-1.449338.251615-.080437.419846-.159412.519322-.21645v-5.991862h-38.925705v9.59985h-51.2870194v-9.59985h-21.4355427c-10.0221732 0-18.174789-8.150513-18.174789-18.1701v-276.8146875c0-10.0195875 8.1526158-18.1701 18.174789-18.1701h440.4153371c7.801525 0 14.782376 5.074875 17.234159 12.43125h21.555498v90.9499495h-20.614868v23.506763h19.630352c.059978-.042413.485675-.487013.915761-1.814963.282335-.87165 1.085455-1.45665 1.998291-1.45665h.804582c.59978 0 1.171765.258863 1.572593.712238.403754.4563.592466 1.063237.517859 1.665787-.380348 3.132676-2.069972 4.555688-3.18761 5.497538-.741679.62595-1.043032.915525-1.043032 1.267987 0 .640576 1.29611.982801 2.407897 1.08225 1.085455.097988 1.904666.995963 1.904666 2.089913v57.071137c0 1.09395-.819211 1.993388-1.904666 2.0943-1.11325.09945-2.407897.441676-2.407897 1.08225 0 .352463.301353.642038 1.043032 1.266525 1.117638.941851 2.805799 2.3634 3.18761 5.496076.074607.601087-.115567 1.209487-.519322 1.667249-.402291.453375-.975739.7137-1.575519.7137h-.795805c-.914298 0-1.718881-.587924-2.004142-1.459574-.430086-1.326488-.85432-1.769626-.969888-1.820813l-19.574762.008775v25.144763h19.630352c.059978-.040951.485675-.48555.915761-1.813501.282335-.871649 1.085455-1.458112 1.998291-1.458112h.804582c.59978 0 1.171765.258862 1.572593.712238.403754.454837.592466 1.063237.517859 1.667249-.380348 3.131213-2.069972 4.555688-3.18761 5.496075-.741679.62595-1.043032.915526-1.043032 1.267988 0 .642037 1.29611.984263 2.407897 1.083712 1.085455.096526 1.904666.9945 1.904666 2.08845v57.0726c0 1.095413-.820674 1.99485-1.907592 2.092838-1.110324.09945-2.404971.441675-2.404971 1.08225 0 .352462.301353.642037 1.043032 1.266525 1.117638.943312 2.805799 2.364862 3.18761 5.497537.074607.601088-.115567 1.209488-.519322 1.665788-.402291.454837-.975739.715162-1.575519.715162h-.795805c-.914298 0-1.718881-.587925-2.004142-1.459575-.430086-1.32795-.85432-1.771087-.969888-1.822275l-21.148818.008776c-2.918441 6.578324-9.363879 10.794712-16.600733 10.794712h-136.514258v13.959562z" fill="#1759a9" mask="url(#a)"/><path d="m469.295463.5133375h-440.4153371c-10.5634378 0-19.15784261 8.5921875-19.15784261 19.1529v276.8146875c0 10.562175 8.59440481 19.1529 19.15784261 19.1529h20.4510262v9.59985h53.2560519v-9.59985h36.958135v4.348012c-.947944.378788-1.575519 1.294313-1.575519 2.326838v.383175c0 1.384987 1.127879 2.50965 2.516149 2.50965h.119956l.188712-.019013c1.145433-.138937 1.960255-.554287 2.549795-1.004737.453492.642037 1.202485 1.055925 2.052417 1.055925h27.478689c.847006 0 1.596-.412425 2.049492-1.055925.589539.451912 1.407288.867262 2.557109 1.0062l.118493.014625.184323.004387c1.386808 0 2.514686-1.124662 2.514686-2.508187v-.387563c0-1.031062-.626111-1.945125-1.575519-2.323912v-4.349475h36.757721v4.349475c-.947945.377325-1.574056 1.29285-1.574056 2.325375v.383175c0 1.384987 1.127878 2.50965 2.514686 2.50965h.121419l.187248-.019013c1.146896-.138937 1.961719-.554287 2.551258-1.0062.453492.644963 1.202486 1.057388 2.050955 1.057388h27.478689c.847006 0 1.595999-.412425 2.049491-1.055925.591003.451912 1.407288.867262 2.55711 1.0062l.11703.014625.185786.004387c1.386807 0 2.514686-1.124662 2.514686-2.508187v-.387563c0-1.031062-.626112-1.945125-1.574056-2.323912v-4.349475h42.436611v13.961025h36.667022v-13.961025h135.529741c7.4124 0 14.036308-4.192988 17.22977-10.79325h20.076529c.121419.209137.295502.571837.476899 1.131975.41692 1.279687 1.597462 2.139637 2.940383 2.139637h.795805c.880653 0 1.72327-.38025 2.311347-1.044225.591002-.6669.867486-1.557562.760696-2.43945-.428623-3.51585-2.295255-5.088037-3.531386-6.129337-.137511-.115538-.29989-.253013-.438863-.377325.266243-.090675.675849-.1872 1.256611-.241313 1.596-.141862 2.802874-1.463962 2.802874-3.07125v-57.0726c0-1.605825-1.205411-2.926462-2.799948-3.068325-.583688-.051187-.993294-.149175-1.259537-.23985.138973-.125775.301352-.26325.438863-.378787 1.237594-1.0413 3.104226-2.61495 3.531386-6.135188.10679-.880425-.169694-1.768162-.759233-2.4336-.586614-.663975-1.427769-1.042762-2.308421-1.042762h-.804582c-1.339996 0-2.520538.858487-2.934533 2.138175-.181396.560137-.355479.922837-.478361 1.133437h-18.148457v-23.179162h18.148457c.121419.209137.295502.5733.476899 1.133437.41692 1.279688 1.597462 2.139638 2.940383 2.139638h.795805c.880653 0 1.72327-.38025 2.311347-1.044225.591002-.668363.867486-1.557563.760696-2.440913-.428623-3.514387-2.295255-5.088037-3.531386-6.127875-.137511-.117-.29989-.253012-.438863-.377325.266243-.092137.675849-.188662 1.256611-.23985 1.597463-.144787 2.802874-1.465425 2.802874-3.074175v-57.071137c0-1.607288-1.205411-2.926463-2.799948-3.069788-.582225-.051187-.993294-.149175-1.259537-.23985.138973-.124312.301352-.261787.438863-.377325 1.237594-1.0413 3.104226-2.61495 3.531386-6.135187.10679-.880425-.169694-1.768163-.759233-2.435063-.586614-.662512-1.427769-1.042762-2.308421-1.042762h-.804582c-1.339996 0-2.519075.858487-2.934533 2.136712-.181396.5616-.355479.925763-.478361 1.1349h-18.148457v-21.5397h20.614869v-92.9155495h-21.843686c-2.776541-7.38855-9.94464-12.43125-17.929025-12.43125zm0 1.9670625c7.842486 0 14.444451 5.2547625 16.508571 12.43125h21.29657v88.981425h-20.614869v25.473825h20.614869c.899669 0 1.537484-1.52685 1.852003-2.493563.150676-.463612.57491-.77805 1.062049-.77805h.804582c.672924 0 1.196634.605475 1.11325 1.273838-.564671 4.675612-4.237956 4.8321-4.237956 6.886912 0 1.528313 2.030474 1.949513 3.306103 2.062125.573448.051188 1.00646.533813 1.00646 1.110038v57.071137c0 .577688-.434475 1.061775-1.009386 1.114425-1.275629.114075-3.303177.535275-3.303177 2.062125 0 2.05335 3.670359 2.2113 4.237956 6.881063.083384.67275-.443252 1.278225-1.117639 1.278225h-.795805c-.490064 0-.917224-.314438-1.0679-.779513-.314519-.966712-.950871-2.490637-1.85054-2.490637-.384737 0-8.844557 0-20.614869 0v27.111825h20.614869c.899669 0 1.537484-1.52685 1.852003-2.493563.150676-.465075.57491-.779512 1.062049-.779512h.804582c.672924 0 1.196634.604012 1.11325 1.2753-.564671 4.675612-4.237956 4.830637-4.237956 6.88545 0 1.528312 2.030474 1.949512 3.306103 2.063587.573448.051188 1.00646.533813 1.00646 1.108575v57.0726c0 .577688-.434475 1.060313-1.009386 1.112963-1.275629.114075-3.303177.535275-3.303177 2.062125 0 2.05335 3.670359 2.209837 4.237956 6.882525.083384.671287-.443252 1.278225-1.117639 1.278225h-.795805c-.490064 0-.917224-.314438-1.0679-.779513-.314519-.968175-.950871-2.4921-1.85054-2.4921-.397903 0-9.4458 0-21.856852 0-2.536629 6.32385-8.715823 10.79325-15.948289 10.79325h-137.497311v13.959563h-32.730419v-13.959563h-46.374677v7.239375c0 .4329.735827.738563 1.202485.890663.222357.071662.373034.27495.373034.510412v.387563c0 .301275-.251615.539662-.547116.539662-.021944 0-.043887-.001462-.06583-.004387-2.251368-.272025-2.325975-2.040188-3.316343-2.040188-.735827 0-.937704.978413-.991831 1.5912-.024869.276413-.257466.48555-.535413.48555h-27.478689c-.27941 0-.512008-.2106-.536876-.48555-.054127-.61425-.257467-1.5912-.993294-1.5912-.987442 0-1.063512 1.7667-3.313418 2.040188-.021943.002925-.045349.004387-.067292.004387-.295501 0-.547116-.23985-.547116-.542587v-.383175c0-.235463.150676-.440213.375959-.513338.465195-.150637 1.19956-.457762 1.19956-.8892 0-.1638 0-3.046387 0-7.239375h-40.694324v7.239375c0 .4329.735827.738563 1.201022.890663.223821.071662.374497.27495.374497.510412v.387563c0 .301275-.253078.539662-.547116.539662-.021943 0-.043886-.001462-.06583-.004387-2.252831-.272025-2.325975-2.040188-3.316343-2.040188-.735827 0-.937704.978413-.993293 1.5912-.024869.276413-.257467.48555-.533951.48555h-27.478689c-.27941 0-.512007-.2106-.536876-.48555-.055589-.61425-.257466-1.5912-.993294-1.5912-.988905 0-1.064975 1.7667-3.313417 2.040188-.021943.002925-.045349.004387-.067293.004387-.296964 0-.548579-.23985-.548579-.542587v-.383175c0-.235463.15214-.440213.37596-.513338.465195-.150637 1.199559-.457762 1.199559-.8892 0-.1638 0-3.046387 0-7.239375h-40.894738v9.59985h-49.3194488v-9.59985h-22.4185963c-9.4940744 0-17.1902725-7.69275-17.1902725-17.185837v-276.8146875c0-9.491625 7.6961981-17.1858375 17.1902725-17.1858375z" fill="#fffffe" mask="url(#a)"/><g stroke="#fffffe"><path d="m410.244953 302.898375h96.855651c.899669 0 1.536021 1.523925 1.85054 2.4921.152139.465075.577836.779513 1.0679.779513h.795805c.67585 0 1.201023-.606938 1.117639-1.278225-.567597-4.671225-4.237956-4.827713-4.237956-6.882525 0-1.52685 2.027548-1.94805 3.303177-2.062125.574911-.051188 1.009386-.535276 1.009386-1.112963v-57.071138c0-.576224-.433012-1.05885-1.00646-1.110037-1.275629-.114075-3.306103-.533812-3.306103-2.062125 0-2.054813 3.673285-2.2113 4.239419-6.886913.081921-.669825-.441789-1.273837-1.114713-1.273837h-.804582c-.487139 0-.911373.314437-1.062049.776588-.314519.968174-.952334 2.495024-1.852003 2.495024-1.31659 0-96.855651 0-96.855651 0zm-23.125166-198.978975h119.980817v-88.981425h-119.980817zm-15.14517-81.557775c0 8.79255-7.130064 15.920775-15.923421 15.920775-8.796281 0-15.924883-7.128225-15.924883-15.920775s7.128602-15.920775 15.924883-15.920775c8.793357 0 15.923421 7.128225 15.923421 15.920775zm-7.842486 0c0 4.46355-3.619158 8.0803125-8.080935 8.0803125-4.464701 0-8.08386-3.6167625-8.08386-8.0803125s3.619159-8.0803125 8.08386-8.0803125c4.461777 0 8.080935 3.6167625 8.080935 8.0803125zm-316.6573703 0c0 8.79255-7.1300645 15.920775-15.9248835 15.920775s-15.9248836-7.128225-15.9248836-15.920775 7.1300646-15.920775 15.9248836-15.920775 15.9248835 7.128225 15.9248835 15.920775zm-7.8424858 0c0 4.46355-3.6176959 8.0803125-8.0823977 8.0803125-4.463239 0-8.0823977-3.6167625-8.0823977-8.0803125s3.6191587-8.0803125 8.0823977-8.0803125c4.4647018 0 8.0823977 3.6167625 8.0823977 8.0803125zm7.8424858 271.476563c0 8.79255-7.1300645 15.920774-15.9248835 15.920774s-15.9248836-7.128224-15.9248836-15.920774c0-8.794013 7.1300646-15.920775 15.9248836-15.920775s15.9248835 7.126762 15.9248835 15.920775zm-7.8424858 0c0 4.462087-3.6176959 8.07885-8.0823977 8.07885-4.463239 0-8.0823977-3.616763-8.0823977-8.07885 0-4.46355 3.6191587-8.081775 8.0823977-8.081775 4.4647018 0 8.0823977 3.618225 8.0823977 8.081775zm332.3423421 0c0 8.79255-7.130064 15.920774-15.923421 15.920774-8.796281 0-15.924883-7.128224-15.924883-15.920774 0-8.794013 7.128602-15.920775 15.924883-15.920775 8.793357 0 15.923421 7.126762 15.923421 15.920775zm-7.842486 0c0 4.462087-3.619158 8.07885-8.080935 8.07885-4.464701 0-8.08386-3.616763-8.08386-8.07885 0-4.46355 3.619159-8.081775 8.08386-8.081775 4.461777 0 8.080935 3.618225 8.080935 8.081775zm-30.868176-261.7962755-1.96757 3.9355875h-10.01047l-1.96757-3.9355875v-20.015775l1.96757-3.934125h10.01047l1.96757 3.934125zm-8.094101-1.9656h2.789707v-2.7889875h-2.789707zm0-13.294125h2.789707v-2.787525h-2.789707zm-5.851509 15.259725-1.967571 3.9355875h-10.01047l-1.969033-3.9355875v-20.015775l1.969033-3.934125h10.01047l1.967571 3.934125zm-8.095564-1.9656h2.789707v-2.7889875h-2.789707zm0-13.294125h2.789707v-2.787525h-2.789707zm58.774026 49.166325-1.969033 3.9355875h-10.01047l-1.966108-3.9355875v-20.0143125l1.966108-3.9355875h10.01047l1.969033 3.9355875z" mask="url(#a)" stroke-width=".673"/><path d="m361.902706 63.98145h2.788244v-2.7889875h-2.788244zm0-13.2912h2.788244v-2.7889875h-2.788244zm-5.85151 15.2582625-1.969033 3.9355875h-10.01047l-1.969033-3.9355875v-20.0143125l1.969033-3.9355875h10.01047l1.969033 3.9355875zm-8.097026-1.9670625h2.79117v-2.7889875h-2.79117zm0-13.2912h2.79117v-2.7889875h-2.79117zm-42.582899-18.6483375-1.96757 3.9355875h-10.01047l-1.96757-3.9355875v-20.015775l1.96757-3.934125h10.01047l1.96757 3.934125zm-8.0941-1.9656h2.789707v-2.7889875h-2.789707zm0-13.294125h2.789707v-2.787525h-2.789707zm-5.85151 15.259725-1.969033 3.9355875h-10.01047l-1.966107-3.9355875v-20.015775l1.966107-3.934125h10.01047l1.969033 3.934125zm-8.094101-1.9656h2.788245v-2.7889875h-2.788245zm0-13.294125h2.788245v-2.787525h-2.788245zm-5.851509 15.259725-1.969033 3.9355875h-10.010471l-1.969033-3.9355875v-20.015775l1.969033-3.934125h10.010471l1.969033 3.934125zm-8.097027-1.9656h2.79117v-2.7889875h-2.79117zm0-13.294125h2.79117v-2.787525h-2.79117zm-5.85151 15.259725-1.966107 3.9355875h-10.011933l-1.96757-3.9355875v-20.015775l1.96757-3.934125h10.011933l1.966107 3.934125zm-8.0941-1.9656h2.789707v-2.7889875h-2.789707zm0-13.294125h2.789707v-2.787525h-2.789707zm-5.85151 15.259725-1.96757 3.9355875h-10.01047l-1.96757-3.9355875v-20.015775l1.96757-3.934125h10.01047l1.96757 3.934125z" mask="url(#a)" stroke-width=".673"/><path d="m241.491803 30.0763125h2.788245v-2.7889875h-2.788245zm0-13.294125h2.788245v-2.787525h-2.788245zm-5.851509 15.259725-1.969033 3.9355875h-10.01047l-1.967571-3.9355875v-20.015775l1.967571-3.934125h10.01047l1.969033 3.934125zm-8.095564-1.9656h2.789707v-2.7889875h-2.789707zm0-13.294125h2.789707v-2.787525h-2.789707zm-5.85151 15.259725-1.96757 3.9355875h-10.011933l-1.96757-3.9355875v-20.015775l1.96757-3.934125h10.011933l1.96757 3.934125zm-8.095563-1.9656h2.789707v-2.7889875h-2.789707zm0-13.294125h2.789707v-2.787525h-2.789707zm-5.85151 15.259725-1.96757 3.9355875h-10.01047l-1.96757-3.9355875v-20.015775l1.96757-3.934125h10.01047l1.96757 3.934125zm-8.094101-1.9656h2.789708v-2.7889875h-2.789708zm0-13.294125h2.789708v-2.787525h-2.789708zm-5.851509 15.259725-1.969033 3.9355875h-10.009007l-1.969033-3.9355875v-20.015775l1.969033-3.934125h10.009007l1.969033 3.934125zm-8.095564-1.9656h2.789707v-2.7889875h-2.789707zm0-13.294125h2.789707v-2.787525h-2.789707zm-5.851509 15.259725-1.967571 3.9355875h-10.01047l-1.96757-3.9355875v-20.015775l1.96757-3.934125h10.01047l1.967571 3.934125zm-8.094101-1.9656h2.788244v-2.7889875h-2.788244zm0-13.294125h2.788244v-2.787525h-2.788244zm-5.85151 15.259725-1.969033 3.9355875h-10.01047l-1.96757-3.9355875v-20.015775l1.96757-3.934125h10.01047l1.969033 3.934125z" mask="url(#a)" stroke-width=".673"/><path d="m157.81229 30.0763125h2.789707v-2.7889875h-2.789707zm0-13.294125h2.789707v-2.787525h-2.789707zm-5.85151 15.259725-1.96757 3.9355875h-10.01047l-1.969033-3.9355875v-20.015775l1.969033-3.934125h10.01047l1.96757 3.934125zm-8.094101-1.9656h2.788245v-2.7889875h-2.788245zm0-13.294125h2.788245v-2.787525h-2.788245zm-5.852972 15.259725-1.96757 3.9355875h-10.010471l-1.96757-3.9355875v-20.015775l1.96757-3.934125h10.010471l1.96757 3.934125zm-8.094101-1.9656h2.789707v-2.7889875h-2.789707zm0-13.294125h2.789707v-2.787525h-2.789707zm-5.85151 15.259725-1.969033 3.9355875h-10.009007l-1.969033-3.9355875v-20.015775l1.969033-3.934125h10.009007l1.969033 3.934125zm-8.095563-1.9656h2.789707v-2.7889875h-2.789707zm0-13.294125h2.789707v-2.787525h-2.789707zm-5.85151 15.259725-1.96757 3.9355875h-10.0104702l-1.9675702-3.9355875v-20.015775l1.9675702-3.934125h10.0104702l1.96757 3.934125zm-8.094101-1.9656h2.789708v-2.7889875h-2.789708zm0-13.294125h2.789708v-2.787525h-2.789708zm-5.8515094 15.259725-1.969033 3.9355875h-10.0104701l-1.9675701-3.9355875v-20.015775l1.9675701-3.934125h10.0104701l1.969033 3.934125zm-8.0955636-1.9656h2.7897073v-2.7889875h-2.7897073zm0-13.294125h2.7897073v-2.787525h-2.7897073zm-5.8515096 15.259725-1.9675701 3.9355875h-10.0104702l-1.9675701-3.9355875v-20.015775l1.9675701-3.934125h10.0104702l1.9675701 3.934125z" mask="url(#a)" stroke-width=".673"/><path d="m74.1342387 30.0763125h2.7897072v-2.7889875h-2.7897072zm0-13.294125h2.7897072v-2.787525h-2.7897072zm-5.8515097 15.259725-1.969033 3.9355875h-10.0104701l-1.9675702-3.9355875v-20.015775l1.9675702-3.934125h10.0104701l1.969033 3.934125zm-8.0955636-1.9656h2.7897072v-2.7889875h-2.7897072zm0-13.294125h2.7897072v-2.787525h-2.7897072zm262.5309066 185.8076995h44.502193v-44.490712h-44.502193z" mask="url(#a)" stroke-width=".673"/><path d="m326.861644 156.46988v1.975499m2.229867-1.975499v1.975499m2.229867-1.975499v1.975499m2.229866-1.975499v1.975499m2.228398-1.975499v1.975499m2.229867-1.975499v1.975499m2.229867-1.975499v1.975499m2.229867-1.975499v1.975499m2.228398-1.975499v1.975499m2.229867-1.975499v1.975499m2.229867-1.975499v1.975499m2.229867-1.975499v1.975499m2.229867-1.975499v1.975499m2.228398-1.975499v1.975499m2.229867-1.975499v1.975499m2.228398-1.975499v1.975499m2.231335-1.975499v1.975499m-35.673463 44.681531v1.9755m2.229867-1.9755v1.9755m2.229867-1.9755v1.9755m2.229866-1.9755v1.9755m2.228398-1.9755v1.9755m2.229867-1.9755v1.9755m2.229867-1.9755v1.9755m2.229867-1.9755v1.9755m2.228398-1.9755v1.9755m2.229867-1.9755v1.9755m2.229867-1.9755v1.9755m2.229867-1.9755v1.9755m2.229867-1.9755v1.9755m2.228398-1.9755v1.9755m2.229867-1.9755v1.9755m2.228398-1.9755v1.9755m2.231335-1.9755v1.9755m6.482479-42.149368h-1.977207m1.977207 2.228128h-1.977207m1.977207 2.229597h-1.977207m1.977207 2.229597h-1.977207m1.977207 2.228128h-1.977207m1.977207 2.231065h-1.977207m1.977207 2.228128h-1.977207m1.977207 2.229597h-1.977207m1.977207 2.228128h-1.977207m1.977207 2.231066h-1.977207m1.977207 2.228128h-1.977207m1.977207 2.229597h-1.977207m1.977207 2.229597h-1.977207m1.977207 2.228128h-1.977207m1.977207 2.231065h-1.977207m1.977207 2.228128h-1.977207m1.977207 2.229597h-1.977207m-44.686944-35.667674h-1.97427m1.97427 2.228128h-1.97427m1.97427 2.229597h-1.97427m1.97427 2.229597h-1.97427m1.97427 2.228128h-1.97427m1.97427 2.231065h-1.97427m1.97427 2.228128h-1.97427m1.97427 2.229597h-1.97427m1.97427 2.228128h-1.97427m1.97427 2.231066h-1.97427m1.97427 2.228128h-1.97427m1.97427 2.229597h-1.97427m1.97427 2.229597h-1.97427" stroke-linecap="round" stroke-width=".673"/><path d="m322.493879 191.358434h-2.114714m2.114714 2.313188h-2.114714m2.114714 2.310142h-2.114714m2.114714 2.311665h-2.114714" stroke-linecap="round" stroke-width=".673"/><path d="m322.493879 118.409639h32.778066v-32.7740968h-32.778066z" stroke-width=".673"/><path d="m328.857833 84.9927703v.9787002zm2.807606 0v.9787002zm2.809075 0v.9787002zm2.809075 0v.9787002zm2.807606 0v.9787002zm2.807606 0v.9787002zm2.807606 0v.9787002zm2.807606 0v.9787002zm2.807606 0v.9787002zm-22.463786 34.1338057v.978701zm2.807606 0v.978701zm2.809075 0v.978701zm2.809075 0v.978701zm2.807606 0v.978701zm2.807606 0v.978701zm2.807606 0v.978701zm2.807606 0v.978701zm2.807606 0v.978701zm6.505536-27.695907h-.98876zm0 2.7804975h-.98876zm0 2.7790433h-.98876zm0 2.7790433h-.98876zm0 2.7804979h-.98876zm0 2.779043h-.98876zm0 2.779043h-.98876zm0 2.780498h-.98876zm0 2.779043h-.98876zm-34.486098-22.236709h-.985821zm0 2.7804975h-.985821zm0 2.7790433h-.985821zm0 2.7790433h-.985821zm0 2.7804979h-.985821zm0 2.779043h-.985821zm0 2.779043h-.985821zm0 2.780498h-.985821zm0 2.779043h-.985821zm55.192742-29.2010408-3.960913 3.9206178-9.499728-9.4030842 3.959444-3.9206178zm-8.0232-9.3231013-.699331.6922159zm1.986333 1.9646717-.69933.6922159zm1.984864 1.9646716-.69933.6922159zm1.986334 1.9661258-.699331.6922159zm1.984864 1.9661259-.697861.6907616zm-12.602639-3.2502155-.699331.6922159zm1.986333 1.9661259-.69933.6907617zm1.984864 1.9646716-.697861.6922159zm1.986334 1.9646716-.699331.6922159zm1.984864 1.9661259-.697861.6922159zm4.741049 15.0687836-3.960913 3.920618-9.499728-9.4045381 3.959444-3.9206178zm-8.0232-9.324555-.699331.6922159zm1.986333 1.9646716-.69933.6922159zm1.984864 1.9661259-.69933.6907616zm1.986334 1.9646716-.699331.6922159zm1.984864 1.9661259-.697861.692216zm-12.602639-3.2487613-.699331.6907617zm1.986333 1.9646716-.69933.6922157zm1.984864 1.9646717-.697861.692216zm1.986334 1.966126-.699331.690761zm1.984864 1.964671-.697861.692216zm-139.0595 67.552129h56.678084v-80.025103h-56.678084z" stroke-linecap="round" stroke-width=".673"/><path d="m210.140621 173.385542h-69.017586c-3.069908 0-5.560203-2.490057-5.560203-5.561128v-69.009542c0-3.0710709 2.490295-5.5611284 5.560203-5.5611284h69.017586c3.069908 0 5.560203 2.4900575 5.560203 5.5611284v69.009542c0 3.071071-2.490295 5.561128-5.560203 5.561128zm-4.971853-5.772274h-59.073881c-2.630101 0-4.760687-2.130382-4.760687-4.758776v-59.069698c0-2.628394 2.130586-4.7602329 4.760687-4.7602329h59.073881c2.630102 0 4.760688 2.1318389 4.760688 4.7602329v59.069698c0 2.628394-2.130586 4.758776-4.760688 4.758776zm-3.652433-4.240378h-51.769014c-2.303888 0-4.170881-1.868271-4.170881-4.171939v-51.764073c0-2.303667 1.866993-4.170482 4.170881-4.170482h51.769014c2.303887 0 4.170881 1.866815 4.170881 4.170482v51.764073c0 2.303668-1.866994 4.171939-4.170881 4.171939zm-152.8779139-49.951137h61.0894179v-72.1898253h-61.0894179z" stroke-linecap="round" stroke-width=".673"/><path d="m358.471536 136.395h6.764343v-10.863296h-6.764343zm-17.523399 125.178025h10.851378v-6.771772h-10.851378zm42.394375-32.952241h10.849911v-6.773239h-10.849911zm0-9.880391h10.849911v-6.771772h-10.849911zm-35.681321 4.239693v-8.756652c0-1.245502 1.008203-2.254813 2.253804-2.254813h12.154128c1.244135 0 2.252339 1.009311 2.252339 2.254813v8.756652c0 1.244034-1.008204 2.254812-2.252339 2.254812h-12.154128c-1.245601 0-2.253804-1.010778-2.253804-2.254812zm-6.713054 50.860174h10.851378v-6.773239h-10.851378zm37.829616-126.794683h24.075256v-38.188041h-24.075256zm-100.692867-58.8657114h10.852842v-6.7732391h-10.852842zm70.144885 48.2151344h5.03076v-8.876948h-5.03076zm-14.516374 0h5.032226v-8.876948h-5.032226zm57.684485 108.022674h5.03076v-8.876949h-5.03076zm-17.835531 24.12077h5.03076v-8.876948h-5.03076zm-32.250791-132.143444h3.181409v-6.120415h-3.181409zm17.793034 124.852346h3.18141v-6.120414h-3.18141zm26.024255 40.062895h3.18141v-6.120414h-3.18141zm-72.429462-74.608321h3.18141v-6.121882h-3.18141zm0 10.522946h3.18141v-6.118947h-3.18141zm18.125683-10.522946h3.18141v-6.121882h-3.18141zm0 10.522946h3.18141v-6.118947h-3.18141zm60.185944 64.085375h3.181409v-6.120414h-3.181409zm5.882164 0h3.18141v-6.120414h-3.18141z" stroke-width=".673"/><path d="m359.248972 272.76506h3.167834v-6.103533h-3.167834zm40.437663-15.293204h3.166374v-6.10207h-3.166374zm0 12.229005h3.166374v-6.103532h-3.166374zm-71.751207-136.392678h3.164915v-6.102071h-3.164915zm-156.643597 57.697619h3.167833v-6.100608h-3.167833zm126.927831-40.835019h6.735477v-10.829274h-6.735477zm63.766692-29.643015h6.08761v-3.175358h-6.08761zm-50.778721 48.834114h3.455288v-1.731748h-3.455288zm0 3.369887h3.455288v-1.731748h-3.455288zm64.942774 3.043722h3.455287v-1.731748h-3.455287zm-194.714505 19.44267h1.727643v-3.463495h-1.727643zm194.714505-16.07132h3.455287v-1.731748h-3.455287zm0 16.861137h3.455287v-1.731747h-3.455287zm0 3.37135h3.455287v-1.73321h-3.455287zm0 6.577424h3.455287v-1.731748h-3.455287zm-64.942774-29.853633h3.455288v-1.731748h-3.455288zm0 3.37135h3.455288v-1.733211h-3.455288zm0 3.369887h3.455288v-1.731748h-3.455288zm0 3.369887h3.455288v-1.731747h-3.455288zm-11.129002 23.524856h16.555613v-10.359771h-16.555613z" stroke-width=".673"/><path d="m300.215881 201.930723h-.983856m.983856 2.700621h-.983856m.983856 2.700621h-.983856m.983856 2.70062h-.983856m18.554386-8.101862h-.983856m.983856 2.700621h-.983856m.983856 2.700621h-.983856m.983856 2.70062h-.983856" stroke-linecap="round" stroke-width=".673"/><path d="m293.94524 237.876506h10.57357v-16.915663h-10.57357z" stroke-width=".673"/><path d="m375.361728 246.334337h10.57357v-12.686747h-10.57357z" stroke-width=".582"/><path d="m387.635418 290.737952h7.816093v-16.158064h-7.816093zm-45.051756-40.460379h6.342864v-16.629983h-6.342864z" stroke-width=".673"/><path d="m303.105651 220.885965v-.982351m-2.700547.982351v-.982351m-2.700546.982351v-.982351m-2.701961.982351v-.982351m8.103054 18.552102v-.983812m-2.700547.983812v-.983812m-2.700546.983812v-.983812m-2.701961.983812v-.983812" stroke-linecap="round" stroke-width=".673"/><path d="m24.9493046 97.5512622h16.5983408v16.8131228h-7.8784211v91.115336h7.8784211v17.020855h-16.5983408v-24.894189l-5.916879-5.902806v-63.563056l5.916879-5.902806zm12.5418482 107.9284588h4.0564926v-91.115336h-4.0564926zm191.6476502-128.1150319h6.116259v-3.1744955h-6.116259zm-114.870428-30.8423451h6.116258v-3.1759585h-6.116258zm0 5.4946567h6.116258v-3.1759584h-6.116258zm114.870428 30.489786h3.471549v-1.732075h-3.471549zm37.015679 7.0497207h3.471548v-1.732075h-3.471548zm-9.118679 0h3.471548v-1.732075h-3.471548zm-123.390969 0h3.471548v-1.732075h-3.471548zm-11.278134 143.7768516h6.768639v-10.832783h-6.768639zm-11.627049 0h6.76864v-10.832783h-6.76864zm-36.5230932-6.953169h6.7671738v-10.83132h-6.7671738zm-46.7486214 44.182541h6.7686398v-10.83132h-6.7686398zm10.6961221 2.163631h11.5581451v-15.160045h-11.5581451zm0-34.483507h10.918958v-13.812712h-10.918958zm-10.6961221-2.274811h7.3227974v-9.26309h-7.3227974zm58.8389338 36.758318h11.5581451v-15.160045h-11.5581451zm29.5316178 8.49653h18.036512v-23.656575h-18.036512zm-80.2780908-34.680998h8.8709204v-5.02214h-8.8709204zm0 7.737284h8.8709204v-5.02214h-8.8709204z" stroke-width=".673"/><path d="m55.5654033 227.715273h8.7451297v-4.972196h-8.7451297zm36.5604242 17.91613h8.7451295v-4.972197h-8.7451295zm0 7.660341h8.7451295v-4.972197h-8.7451295zm7.588749 13.962125h4.9637645v-8.763985h-4.9637645zm-82.7968648 8.682878h4.9637645v-8.763986h-4.9637645zm0-20.749109h4.9637645v-8.763986h-4.9637645zm63.0877996 18.714173h3.1366829v-6.043979h-3.1366829zm-9.210573-1.449802h6.0305259v-3.144375h-6.0305259zm-10.8584156 0h6.0305258v-3.144375h-6.0305258zm-5.6200107-11.191426h27.5637817v-27.618648h-27.5637817zm-3.8175021-42.856773h14.5212518v-9.072485h-14.5212518z" stroke-width=".673"/><path d="m57.8892496 232.590361v.960487m2.7276568-.960487v.960487m2.7276568-.960487v.960487m2.7276568-.960487v.960487m2.7290842-.960487v.960487m2.7276568-.960487v.960487m2.7276568-.960487v.960487m2.7290841-.960487v.960487m-19.0964523 27.214751v.95906m2.7276568-.95906v.95906m2.7276568-.95906v.95906m2.7276568-.95906v.95906m2.7290842-.95906v.95906m2.7276568-.95906v.95906m2.7276568-.95906v.95906m2.7290841-.95906v.95906m5.0214007-24.113505h-.9606034m.9606034 2.727326h-.9606034m.9606034 2.727327h-.9606034m.9606034 2.728753h-.9606034m.9606034 2.727327h-.9606034m.9606034 2.727326h-.9606034m.9606034 2.728754h-.9606034m.9606034 2.727326h-.9606034m-27.2194742-19.094139h-.959176m.959176 2.727326h-.959176m.959176 2.727327h-.959176m.959176 2.728753h-.959176m.959176 2.727327h-.959176m.959176 2.727326h-.959176m.959176 2.728754h-.959176m.959176 2.727326h-.959176" stroke-linecap="round" stroke-width=".673"/><g stroke-width=".673" transform="translate(186.094829 125.810241)"><path d="m94.6943118 184.942669c-.2278202 0-16.5344838 0-16.5344838 0v-16.838809h7.8481113v-91.2545394h-7.8481113v-17.046859h16.5344838v24.9322216l5.8941152 5.9118243v63.6601655l-5.8941152 5.911824zm-16.5344838-16.838809h4.0408865v-91.2545394h-4.0408865zm121.198847-86.3902875h6.092728v-3.1808105h-6.092728zm-4.617739 57.8948545h16.100749v-7.889758h-16.100749zm-62.666599-38.446637h10.281114v-6.1140135h-10.281114zm.411829 10.502095h1.729096v-3.470907h-1.729096zm3.86418 0h1.729096v-3.470907h-1.729096zm3.694775 0h1.727636v-3.470907h-1.727636zm-139.1031724 46.841868h6.35413699v-6.376273h-6.35413699zm11.5954603 0h6.3555974v-6.376273h-6.3555974zm-12.35047957 22.913264h7.86417552v-16.153126h-7.86417552zm301.60317967-30.313667-6.507478-3.33465c-.394304-.202188-.83242-.307678-1.276377-.307678h-4.997439c-.620663 0-1.124496.505472-1.124496 1.12962v1.34939c0 .622683.503833 1.128155 1.124496 1.128155h3.897769c.362176 0 .722891.070326 1.058779.208049l6.913465 2.821852c.335889.137723.695144.20805 1.05878.20805h9.271987c.620663 0 1.124496.505472 1.124496 1.12962v6.147711c0 .624148-.503833 1.128155-1.124496 1.128155h-9.271987c-.363636 0-.722891.070326-1.05878.208049l-6.913465 2.823317c-.335888.136258-.696603.206585-1.058779.206585h-3.897769c-.620663 0-1.124496.505472-1.124496 1.12962v1.34939c0 .624148.503833 1.128155 1.124496 1.128155h4.997439c.443957 0 .882073-.10549 1.276377-.307679l6.507478-3.333185c.395764-.203653.83388-.309143 1.276376-.309143h12.439564c1.216501 0 2.203721-.990432 2.203721-2.210891v-9.773923c0-1.220458-.98722-2.21089-2.203721-2.21089h-12.439564c-.442496 0-.880612-.10549-1.276376-.307679zm0-35.465085-6.507478-3.33465c-.394304-.202189-.83242-.307679-1.276377-.307679h-4.997439c-.620663 0-1.124496.505472-1.124496 1.12962v1.349391c0 .622683.503833 1.128155 1.124496 1.128155h3.897769c.362176 0 .722891.070326 1.058779.208049l6.913465 2.821852c.335889.137723.695144.208049 1.05878.208049h9.271987c.620663 0 1.124496.505472 1.124496 1.12962v6.147712c0 .624148-.503833 1.128154-1.124496 1.128154h-9.271987c-.363636 0-.722891.070327-1.05878.20805l-6.913465 2.823317c-.335888.136258-.696603.206584-1.058779.206584h-3.897769c-.620663 0-1.124496.505472-1.124496 1.12962v1.349391c0 .622683.503833 1.128154 1.124496 1.128154h4.997439c.443957 0 .882073-.105489 1.276377-.307678l6.507478-3.333185c.395764-.203654.83388-.309144 1.276376-.309144h12.439564c1.216501 0 2.203721-.990432 2.203721-2.21089v-9.773923c0-1.220459-.98722-2.210891-2.203721-2.210891h-12.439564c-.442496 0-.880612-.105489-1.276376-.307678z"/><path d="m224.077159 76.9533452h96.690658c.898137 0 1.533405 1.5266719 1.847388 2.4951269.15188.4673784.576852.7823827 1.066081.7823827h.79445c.674698 0 1.198976-.6080315 1.115734-1.280529-.566629-4.6796448-4.230736-4.8364144-4.230736-6.8949307 0-1.5296021 2.024094-1.9515613 3.29755-2.0658419.573931-.0512798 1.007666-.5362399 1.007666-1.1149686v-57.1740074c0-.5772637-.432274-1.0607586-1.004745-1.1120384-1.273456-.1142806-3.300471-.5347746-3.300471-2.0658419 0-2.05998141 3.667027-2.21528584 4.232197-6.9007912.081781-.66956721-.441037-1.27466844-1.112814-1.27466844h-.803212c-.486308 0-.90982.31353914-1.06024.77798729-.313983.96845499-.950711 2.49952225-1.848848 2.49952225-1.314347 0-96.690658 0-96.690658 0zm96.100662-58.6801673v9.7006663c0 .5714031-.426432 1.0519678-.991601 1.119364l-31.104749 3.6745615c-.673238.0805824-1.266155-.4483317-1.266155-1.1281549v-.9215706c0-.5845893.442497-1.0754099 1.023731-1.1310851l24.452693-2.3837765c1.150784-.1128155 2.028476-1.0842007 2.028476-2.2445885v-3.6701661c0-1.1603878-.877692-2.131773-2.028476-2.2445885l-24.452693-2.3837765c-.581234-.0556752-1.023731-.5450307-1.023731-1.1310851v-.9215706c0-.6798232.592917-1.2087373 1.266155-1.12962l31.104749 3.6760266c.565169.0673962.991601.5479609.991601 1.119364zm0 34.2519525v9.7006664c0 .5728682-.426432 1.0534329-.991601 1.119364l-31.104749 3.6760266c-.673238.0805825-1.266155-.4483317-1.266155-1.12962v-.9215706c0-.5845893.442497-1.0739448 1.023731-1.1310851l24.452693-2.3837765c1.150784-.1113504 2.028476-1.0827356 2.028476-2.2431234v-3.6716312c0-1.1603878-.877692-2.1303079-2.028476-2.2431234l-24.452693-2.3837765c-.581234-.0571403-1.023731-.5464958-1.023731-1.1310851v-.9215706c0-.6798232.592917-1.2087373 1.266155-1.12962l31.104749 3.6760266c.565169.0673962.991601.5479609.991601 1.1178988zm-33.362505-10.0068798v-4.4584092c0-.3780051.283315-.6974048.658634-.742824l20.614801-2.4350563c.446878-.0527449.838261.2974226.838261.7486846v.6109617c0 .386796-.293537.7120562-.679079.7486846l-16.204437 1.5808819c-.763781.0747219-1.345015.7179167-1.345015 1.4871132v.4615179c0 .7691964.581234 1.4123912 1.345015 1.4871131l16.204437 1.5794168c.385542.0380935.679079.3618886.679079.7501497v.6109618c0 .4512619-.391383.7999643-.838261.7486845l-20.614801-2.4365214c-.375319-.0439541-.658634-.3633537-.658634-.7413589z"/></g><path d="m270.683387 209.184178h-1.678469m1.678469 5.568081h-1.678469m1.678469 5.566621h-1.678469m1.678469 5.56808h-1.678469m1.678469 5.566621h-1.678469m1.678469 5.568081h-1.678469m1.678469 5.566621h-1.678469m1.678469 5.566621h-1.678469m1.678469 5.566621h-1.678469m1.678469 5.606039h-1.678469m1.678469 5.566621h-1.678469m1.678469 5.56808h-1.678469m1.678469 5.566621h-1.678469m1.678469 5.568081h-1.678469m1.678469 5.566621h-1.678469m-231.3763121-166.639492h-1.6784686m1.6784686 5.568081h-1.6784686m1.6784686 5.566621h-1.6784686m1.6784686 5.568081h-1.6784686m1.6784686 5.566621h-1.6784686m1.6784686 5.566621h-1.6784686m1.6784686 5.568081h-1.6784686m1.6784686 5.566621h-1.6784686m1.6784686 5.568081h-1.6784686m1.6784686 5.604578h-1.6784686m1.6784686 5.566621h-1.6784686m1.6784686 5.568081h-1.6784686m1.6784686 5.566621h-1.6784686m1.6784686 5.566621h-1.6784686m1.6784686 5.568081h-1.6784686" stroke-linecap="round" stroke-width=".673"/><path d="m216.939968 278.051205v43.085902c0 .434082-.734524.743089-1.199821.896121-.225332.072102-.376041.279578-.376041.515012v.386995c0 .328136.291176.579756.614542.541498 2.250395-.275163 2.326481-2.052691 3.314138-2.052691.735988 0 .939372.982938.994973 1.598009.023411.281049.25606.489997.53553.489997h27.484667c.278007 0 .510655-.208948.535529-.488525.054138-.616543.256059-1.599481.992047-1.599481.990583 0 1.065206 1.778999 3.317064 2.052691.323367.038258.613079-.211891.613079-.540027v-.389937c0-.235434-.150709-.441439-.373115-.513541-.466759-.151561-1.202746-.460568-1.202746-.896121 0-.637143 0-43.085902 0-43.085902zm28.208948 37.426656h-4.664667c-.273618 0-.504803-.207476-.536993-.48264l-1.767541-15.085436c-.038043-.326665.216553-.6136.542846-.6136h.443348c.280934 0 .516508.214833.544309.495883l1.145682 11.85999c.054138.559156.520898.984409 1.078375.984409h1.764614c.557478 0 1.024237-.425253 1.078376-.984409l1.147145-11.85999c.026337-.28105.261912-.495883.542845-.495883h.443349c.327756 0 .580888.286935.542845.6136l-1.76754 15.085436c-.030727.275164-.263375.48264-.536993.48264zm-16.466803 0h-4.663205c-.275081 0-.506265-.207476-.538456-.48264l-1.766077-15.085436c-.039506-.326665.21509-.6136.541382-.6136h.444812c.27947 0 .516508.214833.542846.495883l1.145682 11.85999c.054138.559156.520897.984409 1.078375.984409h1.766077c.557478 0 1.024237-.425253 1.076912-.984409l1.147145-11.85999c.026338-.28105.261912-.495883.542846-.495883h.443348c.327756 0 .580889.286935.542846.6136l-1.766077 15.085436c-.032191.275164-.263376.48264-.538456.48264zm-87.69663-37.426656v43.085902c0 .434082-.734524.743089-1.199821.896121-.223868.072102-.376041.279578-.376041.515012v.386995c0 .328136.292639.579756.616006.541498 2.250394-.275163 2.325017-2.052691 3.314138-2.052691.735987 0 .937908.982938.993509 1.598009.024875.281049.257523.489997.536993.489997h27.484667c.276544 0 .509192-.208948.534066-.488525.055602-.616543.257523-1.599481.99351-1.599481.990584 0 1.065207 1.778999 3.317065 2.052691.321903.038258.613079-.211891.613079-.540027v-.389937c0-.235434-.15071-.441439-.374579-.513541-.465296-.151561-1.201283-.460568-1.201283-.896121 0-.637143 0-43.085902 0-43.085902zm28.208948 37.426656h-4.663204c-.273618 0-.506266-.207476-.538456-.48264l-1.766077-15.085436c-.038043-.326665.21509-.6136.542845-.6136h.443349c.280933 0 .516508.214833.542845.495883l1.147146 11.85999c.054138.559156.520897.984409 1.076912.984409h1.766077c.557477 0 1.024237-.425253 1.078375-.984409l1.145682-11.85999c.026338-.28105.263375-.495883.544309-.495883h.443348c.326293 0 .580889.286935.541382.6136l-1.766077 15.085436c-.03219.275164-.263375.48264-.538456.48264zm-16.46534 0h-4.664668c-.273617 0-.504802-.207476-.536993-.48264l-1.76754-15.085436c-.038043-.326665.21509-.6136.542846-.6136h.443348c.280934 0 .516508.214833.542846.495883l1.147145 11.85999c.054138.559156.520898.984409 1.078375.984409h1.764614c.557478 0 1.024237-.425253 1.078375-.984409l1.147146-11.85999c.026337-.28105.261912-.495883.542845-.495883h.443348c.326293 0 .580889.286935.542846.6136l-1.76754 15.085436c-.032191.275164-.263375.48264-.536993.48264zm-101.9759559 8.034187h49.3287139v-41.489365h-49.3287139zm39.4872603-31.79684v-.107416c0-.595943-.4813914-1.080054-1.0739856-1.080054h-3.3156013c-.5940574 0-1.0739856-.48264-1.0739856-1.080054v-.114774c0-.595942.4799282-1.078582 1.0739856-1.078582h3.3156013c.5925942 0 1.0739856-.485583 1.0739856-1.081525v-.11036c0-.595942-.4813914-1.080054-1.0739856-1.080054h-5.6669567c-.4887073 0-.8837701.397295-.8837701.888764v5.035346c0 .491468.3950628.888763.8837701.888763h5.6669567c.5925942 0 1.0739856-.484111 1.0739856-1.080054z" stroke-width=".673"/><path d="m61.3267049 287.51466v.100014c0 .554874.4672986 1.005623 1.0425446 1.005623h3.218537c.575246 0 1.0425447.45075 1.0425447 1.005624v.106864c0 .554874-.4672987 1.005623-1.0425447 1.005623h-3.218537c-.575246 0-1.0425446.45075-1.0425446 1.005624v.102754c0 .554874.4672986 1.005624 1.0425446 1.005624h5.5010564c.4729801 0 .8578978-.369916.8578978-.827516v-4.688342c0-.4576-.3849177-.827516-.8578978-.827516h-5.5010564c-.575246 0-1.0425446.45075-1.0425446 1.005624z" stroke-width=".673"/><path d="m103.781738 234.704819h-16.1833146l-1.952508-1.953259v-14.066373l1.952508-1.953259h16.1833146l1.95396 1.953259v14.066373z" stroke-width=".654"/><path d="m298.297558 326.683735h32.533741v-13.931148h-32.533741zm-3.294961-13.931148h39.122209v-67.475479h-39.122209zm39.122209-20.11367h-3.950754c-.431864 0-.759034.340711-.823014.770622-.532195 3.600135-4.795578 3.344235-4.797032-.770622l-5.377214-27.992439v-7.447395h-9.226181v7.447395l-5.377213 27.992439c0 4.114857-4.264837 4.370757-4.797033.770622-.06398-.429911-.389695-.770622-.823013-.770622h-3.950755zm-19.560377-47.361809h7.888421v14.121245c0 1.241476.998958 2.248987 2.234932 2.248987h1.883042c.663064 0 1.176357.58345 1.096382 1.244401l-1.778349 14.602335c-.161403 1.1669-.292271 1.892191-1.122555 1.892191-.898625-.087737-.830283-1.340911-.837554-2.177336 0-.810103.039261-4.587174.05671-6.404789.00727-.63463-.203572-1.251712-.599084-1.75035l-4.209582-5.309541v-6.545168h-9.226181v6.545168l-4.209582 5.309541c-.395511.498638-.606354 1.11572-.599084 1.75035.01745 1.817615.058164 5.594686.058164 6.404789-.00727.836425.059618 2.089599-.837554 2.177336-.830284 0-.962606-.725291-1.124009-1.892191l-1.778349-14.602335c-.079974-.660951.433318-1.244401 1.097836-1.244401h1.883043c1.234519 0 2.234931-1.007511 2.234931-2.248987v-14.121245zm15.648883 0v47.361809zm-31.299221 0v47.361809z" stroke-width=".673"/></g></g></svg>